<?xml version="1.0" encoding="UTF-8"?>
<svg width="18px" height="16px" viewBox="0 0 18 16" version="1.1" xmlns="http://www.w3.org/2000/svg" xmlns:xlink="http://www.w3.org/1999/xlink">
    <title>AB243353-01BC-48F2-8A8C-05511EE3F5EE</title>
    <g id="New" stroke="none" stroke-width="1" fill="none" fill-rule="evenodd">
        <g id="01-Main" transform="translate(-126.000000, -387.000000)" fill="#B1BEC5" fill-rule="nonzero">
            <g id="Content" transform="translate(120.000000, 154.000000)">
                <g id="Actions" transform="translate(0.000000, 64.000000)">
                    <g id="010-books" transform="translate(6.000000, 169.000000)">
                        <path d="M17.7796758,9.51992578 C17.2025508,9.05821875 16.8715547,8.36954297 16.8715547,7.63045312 C16.8715547,6.89136328 17.2025508,6.20265234 17.7796758,5.74098047 C17.9743359,5.58527344 18.0493945,5.32357031 17.9668828,5.088375 C17.8844062,4.85310937 17.6622891,4.69571484 17.4130312,4.69571484 L17.4114141,4.69571484 C17.7807305,4.20479297 17.9999958,3.5949375 17.9999958,2.93477344 C17.9999958,1.31649609 16.6834687,0 15.0652266,0 L0.58696875,0 C0.337710937,0 0.11559375,0.157429688 0.0331171875,0.392660156 C-0.049359375,0.627855469 0.0256992187,0.889523437 0.220324219,1.04526562 C1.43254687,2.01498047 1.42994531,3.85657031 0.220324219,4.82424609 C0.0256640625,4.97995312 -0.0493945313,5.24165625 0.0331171875,5.47685156 C0.11559375,5.71211719 0.337710937,5.86951172 0.58696875,5.86951172 L0.588585937,5.86951172 C0.219269531,6.36039844 -4.20329422e-06,6.97025391 -4.20329422e-06,7.63041797 C-4.20329422e-06,8.29058203 0.219269531,8.9004375 0.588585937,9.39128906 L0.58696875,9.39128906 C0.262828125,9.39128906 -4.20329422e-06,9.65408203 -4.20329422e-06,9.97825781 L-4.20329422e-06,14.6739023 C-4.20329422e-06,14.998043 0.262792969,15.2608711 0.58696875,15.2608711 L17.4130312,15.2608711 C17.7371719,15.2608711 17.9999958,14.9980781 17.9999958,14.6739023 L17.9999958,9.97825781 C17.9999958,9.79533984 17.9128477,9.62557031 17.7796758,9.51992578 Z M2.34783984,14.0869336 L1.1739375,14.0869336 L1.1739375,10.5651914 L2.34783984,10.5651914 L2.34783984,14.0869336 Z M1.1739375,7.63041797 C1.1739375,6.65947266 1.96386328,5.86954688 2.93480859,5.86954688 L9.78261328,5.86954688 L9.78261328,7.63041797 C9.78261328,8.09891016 10.306125,8.37833203 10.6951289,8.11877344 L12.130418,7.16192578 L13.565707,8.11877344 C13.9526367,8.37685547 14.4782227,8.10193359 14.4782227,7.63041797 L14.4782227,5.86954688 L15.0651914,5.86954688 L16.1565117,5.86954688 C15.858457,6.39931641 15.6976172,7.00259766 15.6976172,7.63041797 C15.6976172,8.25823828 15.8583867,8.86148437 16.1565117,9.39128906 L2.93480859,9.39128906 C1.96382812,9.39128906 1.1739375,8.60136328 1.1739375,7.63041797 Z M10.9565156,6.53368359 L10.9565156,3.52170703 L13.3043203,3.52170703 L13.3043203,6.53368359 L12.4559648,5.968125 C12.2587734,5.83667578 12.0020273,5.83667578 11.8048008,5.968125 L10.9565156,6.53368359 Z M12.130418,14.0869336 L3.52174219,14.0869336 L3.52174219,10.5651914 L12.130418,10.5651914 L12.130418,14.0869336 Z M14.4782578,14.0869336 L13.3043555,14.0869336 L13.3043555,10.5651914 L14.4782578,10.5651914 L14.4782578,14.0869336 Z M16.8260625,14.0869336 L15.6521602,14.0869336 L15.6521602,10.5651914 L16.8260625,10.5651914 L16.8260625,14.0869336 Z M15.0652266,4.69564453 L14.4782578,4.69564453 L14.4782578,3.52174219 L15.0652266,3.52174219 C15.3893672,3.52174219 15.6521953,3.25894922 15.6521953,2.93477344 C15.6521953,2.61063281 15.3894023,2.34780469 15.0652266,2.34780469 C14.8103789,2.34780469 9.42996094,2.34780469 9.19567969,2.34780469 C8.87153906,2.34780469 8.60871094,2.61059766 8.60871094,2.93477344 C8.60871094,3.25891406 8.87150391,3.52174219 9.19567969,3.52174219 L9.78264844,3.52174219 L9.78264844,4.69564453 C9.48364453,4.69564453 2.12660156,4.69564453 1.84352344,4.69564453 C2.45496094,3.60878906 2.45626172,2.26304297 1.84352344,1.17390234 L15.0652266,1.17390234 C16.0361719,1.17390234 16.8260977,1.96382812 16.8260977,2.93477344 C16.8260977,3.90571875 16.0361367,4.69564453 15.0652266,4.69564453 Z" id="Shape"></path>
                    </g>
                </g>
            </g>
        </g>
    </g>
</svg>