<?xml version="1.0" encoding="UTF-8"?>
<svg width="18px" height="25px" viewBox="0 0 18 25" version="1.1" xmlns="http://www.w3.org/2000/svg" xmlns:xlink="http://www.w3.org/1999/xlink">
    <title>5B975832-12D4-4A15-87F2-EEE02D0D4E5E</title>
    <g id="New" stroke="none" stroke-width="1" fill="none" fill-rule="evenodd">
        <g id="01-Main" transform="translate(-126.000000, -331.000000)" fill="#B1BEC5" fill-rule="nonzero">
            <g id="Content" transform="translate(120.000000, 154.000000)">
                <g id="Actions" transform="translate(0.000000, 64.000000)">
                    <g id="009-copy" transform="translate(6.000000, 113.000000)">
                        <path d="M17.7230769,4.29230769 L12.1846154,0.138461538 C12.0642923,0.0483230769 11.9156308,9.59232693e-15 11.7692308,9.59232693e-15 L4.84615385,9.59232693e-15 C4.46381538,9.59232693e-15 4.15384615,0.309969231 4.15384615,0.692307692 L4.15384615,5.53846154 L0.692307692,5.53846154 C0.309969231,5.53846154 0,5.84843077 0,6.23076923 L0,22.9384615 C0,23.3208 0.309969231,23.6307692 0.692307692,23.6307692 L13.1538462,23.6307692 C13.5361846,23.6307692 13.8461538,23.3208 13.8461538,22.9384615 L13.8461538,18.0461538 L17.3076923,18.0461538 C17.6900308,18.0461538 18,17.7361846 18,17.3538462 L18,4.85086154 C18,4.64621538 17.9084769,4.43136923 17.7230769,4.29230769 Z M12.4615385,2.07692308 L15.2307692,4.15384615 L12.4615385,4.15384615 L12.4615385,2.07692308 Z M12.4615385,22.2461538 L1.38461538,22.2461538 L1.38461538,6.92307692 L6.92307692,6.92307692 L6.92307692,10.3846154 C6.92307692,10.7669538 7.23304615,11.0769231 7.61538462,11.0769231 L12.4615385,11.0769231 L12.4615385,22.2461538 Z M8.30769231,7.61538462 L11.0769231,9.69230769 L8.30769231,9.69230769 L8.30769231,7.61538462 Z M13.8461538,16.6615385 C13.8461538,14.8637077 13.8461538,12.1664308 13.8461538,10.3846154 C13.8461538,10.1623385 13.7367692,9.9564 13.5692308,9.83076923 L8.03076923,5.67692308 C7.91663077,5.5914 7.76806154,5.53846154 7.61538462,5.53846154 L5.53846154,5.53846154 L5.53846154,1.38461538 L11.0769231,1.38461538 L11.0769231,4.84615385 C11.0769231,5.22849231 11.3868923,5.53846154 11.7692308,5.53846154 L16.6153846,5.53846154 L16.6153846,16.6615385 L13.8461538,16.6615385 Z" id="Shape"></path>
                    </g>
                </g>
            </g>
        </g>
    </g>
</svg>