<?xml version="1.0" encoding="UTF-8"?>
<svg width="14px" height="15px" viewBox="0 0 14 15" version="1.1" xmlns="http://www.w3.org/2000/svg" xmlns:xlink="http://www.w3.org/1999/xlink">
    <title>540AB537-39A1-4061-A5FC-40711117C6EA</title>
    <g id="New" stroke="none" stroke-width="1" fill="none" fill-rule="evenodd">
        <g id="Mobile---Menu" transform="translate(-124.000000, -101.000000)" fill-rule="nonzero">
            <g id="Modes" transform="translate(16.000000, 92.000000)">
                <g id="Dark" transform="translate(99.000000, 0.000000)">
                    <g id="012-night-mode" transform="translate(9.000000, 9.000000)">
                        <path d="M13.060572,9.602096 C10.765776,10.552724 8.134756,9.462908 7.18424,7.168056 C6.233668,4.873204 7.323428,2.242296 9.61828,1.291724 C9.793868,1.219036 9.9715,1.158332 10.150112,1.109136 C8.47224,0.288596 6.463828,0.164332 4.6025,0.935256 C1.160236,2.361128 -0.47446,6.307504 0.951384,9.74974 C2.377284,13.192032 6.323688,14.8267 9.765896,13.400828 C11.627252,12.629848 12.959548,11.121824 13.56586,9.355164 C13.404664,9.446724 13.236188,9.529408 13.060572,9.602096 Z" id="Path" fill="#C5E1E6"></path>
                        <path d="M13.834072,9.031764 C13.6997,8.920324 13.510364,8.90358 13.358576,8.989764 C13.210568,9.073764 13.056288,9.149168 12.899936,9.213876 C12.400808,9.420656 11.876396,9.525488 11.34126,9.525488 C9.685396,9.525488 8.205988,8.537004 7.572348,7.007196 C7.155568,6.000932 7.15554,4.892608 7.572348,3.886344 C7.989156,2.880136 8.772848,2.096416 9.779,1.679636 C9.935968,1.614676 10.098424,1.558872 10.261776,1.513876 C10.430112,1.467508 10.552192,1.321824 10.568404,1.147972 C10.584588,0.97412 10.491572,0.80836 10.334716,0.731696 C9.355976,0.25298 8.26532,0 7.180796,0 C6.239828,0 5.318292,0.184072 4.441864,0.547036 C2.673384,1.279628 1.296008,2.657004 0.563472,4.425484 C-0.169092,6.193964 -0.169092,8.14184 0.563472,9.91032 C1.116556,11.245584 2.045484,12.368692 3.24982,13.158264 C4.425036,13.92874 5.78648,14.336 7.186956,14.336 C8.128232,14.336 9.049992,14.151872 9.9267,13.788684 C11.824428,13.002668 13.29566,11.436292 13.96318,9.491328 C14.019852,9.326184 13.968444,9.143204 13.834072,9.031764 Z M9.605232,13.012608 C8.830976,13.333348 8.017324,13.496 7.186956,13.496 C4.617928,13.496 2.322656,11.962356 1.33952,9.588852 C0.69286,8.027684 0.69286,6.308092 1.33952,4.746924 C1.986208,3.1857 3.202108,1.969772 4.763304,1.323112 C5.537308,1.00254 6.35068,0.84 7.180796,0.84 C7.799064,0.84 8.419796,0.93324 9.014712,1.113112 C6.815396,2.290904 5.821816,4.976076 6.7963,7.328608 C7.175868,8.244908 7.813288,9.015608 8.639708,9.557464 C9.446024,10.086076 10.380216,10.36546 11.34126,10.36546 C11.824204,10.36546 12.299672,10.294872 12.76016,10.155124 C12.074328,11.434556 10.963512,12.45006 9.605232,13.012608 Z" id="Shape" fill="#000000"></path>
                    </g>
                </g>
            </g>
        </g>
    </g>
</svg>