<?xml version="1.0" encoding="UTF-8"?>
<svg width="20px" height="21px" viewBox="0 0 20 21" version="1.1" xmlns="http://www.w3.org/2000/svg" xmlns:xlink="http://www.w3.org/1999/xlink">
    <title>4856F4F3-37BC-4202-90E6-CD70FE1060E1</title>
    <g id="New" stroke="none" stroke-width="1" fill="none" fill-rule="evenodd">
        <g id="01-Main" transform="translate(-125.000000, -435.000000)" fill="#B1BEC5" fill-rule="nonzero">
            <g id="Content" transform="translate(120.000000, 154.000000)">
                <g id="Actions" transform="translate(0.000000, 64.000000)">
                    <g id="011-share" transform="translate(5.000000, 217.000000)">
                        <path d="M15.7052748,11.4855055 C14.2898297,11.4855055 13.0425005,12.1842219 12.263163,13.2462095 L8.36900154,11.2986732 C8.48958125,10.9036836 8.57368063,10.4930418 8.57368063,10.0591701 C8.57368063,9.62529851 8.48958125,9.21457387 8.36900154,8.81966704 L12.263163,6.87213081 C13.0425005,7.93411838 14.2898297,8.63283474 15.7052748,8.63283474 C18.0648193,8.63283474 19.9842396,6.71341445 19.9842396,4.35386994 C19.9842396,1.99432542 18.0648608,0.0749465418 15.7052748,0.0749465418 C13.3456889,0.0749465418 11.42631,1.99436683 11.42631,4.35391135 C11.42631,4.78778298 11.5104922,5.1984248 11.6310719,5.59333163 L7.73678622,7.54095068 C6.95744875,6.4789631 5.71011955,5.78024675 4.29467442,5.78024675 C1.93512991,5.78024675 0.0157510233,7.69962563 0.0157510233,10.0592116 C0.0157510233,12.4187975 1.93512991,14.3381764 4.29471583,14.3381764 C5.71016096,14.3381764 6.95749015,13.63946 7.73682763,12.5774724 L11.6309891,14.5250915 C11.5104094,14.9199569 11.42631,15.3305987 11.42631,15.7645118 C11.42631,18.1240563 13.3456889,20.0434766 15.7052748,20.0434766 C18.0648608,20.0434766 19.9842396,18.1240563 19.9842396,15.7645118 C19.9842396,13.4049672 18.0648193,11.4855055 15.7052748,11.4855055 Z M15.7052748,1.50128195 C17.2785668,1.50128195 18.5579042,2.78136476 18.5579042,4.35391135 C18.5579042,5.92649934 17.2785254,7.20654074 15.7052748,7.20654074 C14.1319829,7.20654074 12.8526454,5.92645793 12.8526454,4.35391135 C12.8526454,2.78136476 14.1320243,1.50128195 15.7052748,1.50128195 Z M4.29471583,12.911841 C2.7214239,12.911841 1.44208643,11.6317581 1.44208643,10.0592116 C1.44208643,8.48662356 2.72146531,7.20658215 4.29471583,7.20658215 C5.86800775,7.20658215 7.14734523,8.48666497 7.14734523,10.0592116 C7.14734523,11.6317581 5.86800775,12.911841 4.29471583,12.911841 Z M15.7052748,18.6170998 C14.1319829,18.6170998 12.8526454,17.3370169 12.8526454,15.7644704 C12.8526454,14.1919238 14.1320243,12.911841 15.7052748,12.911841 C17.2785668,12.911841 18.5579042,14.1919238 18.5579042,15.7644704 C18.5579042,17.3370583 17.2785668,18.6170998 15.7052748,18.6170998 Z" id="Shape"></path>
                    </g>
                </g>
            </g>
        </g>
    </g>
</svg>