<?xml version="1.0" standalone="no"?>
<!DOCTYPE svg PUBLIC "-//W3C//DTD SVG 1.1//EN" "http://www.w3.org/Graphics/SVG/1.1/DTD/svg11.dtd" >
<svg xmlns="http://www.w3.org/2000/svg">
<metadata>Generated by IcoMoon</metadata>
<defs>
<font id="quran-icon" horiz-adv-x="1024">
<font-face units-per-em="1024" ascent="960" descent="-64" />
<missing-glyph horiz-adv-x="1024" />
<glyph unicode="&#x20;" horiz-adv-x="512" d="" />
<glyph unicode="&#xe900;" glyph-name="arrow-down" horiz-adv-x="1463" d="M1269.994 960l192.863-192.864-731.429-731.429-731.429 731.429 192.863 192.864 538.532-538.56z" />
<glyph unicode="&#xe901;" glyph-name="arrow-right" horiz-adv-x="652" d="M-2.367 825.982l131.65 131.65 499.28-499.279-499.28-499.28-131.65 131.65 367.626 367.607z" />
<glyph unicode="&#xe902;" glyph-name="book-open" horiz-adv-x="1293" d="M650.795-61.046l-7.855-0.009-7.305 0.92-4.576 1.035-8.163 2.868-6.002 3.010-3.294 2.053c-61.886 41.114-145.984 65.017-236.336 65.017s-174.451-23.903-236.336-65.017c-37.906-25.184-87.982-0.499-92.666 43.187l-0.355 6.692v778.481c0 20.056 10.040 38.78 26.745 49.878 82.118 54.557 189.317 85.025 302.612 85.025 98.629 0 192.638-23.090 269.502-65.063 76.856 41.984 170.842 65.063 269.446 65.063 113.295 0 220.493-30.468 302.612-85.025 14.617-9.711 24.131-25.261 26.281-42.432l0.464-7.446v-778.481c0-47.785-53.218-76.321-93.020-49.879-61.886 41.114-145.984 65.017-236.336 65.017-83.899 0-162.404-20.61-222.741-56.473l-17.97-11.202-5.886-2.811-10.145-3.179-8.674-1.229zM377.263 792.327c-70.993 0-138.124-14.756-193.651-41.022l-15.94-8.022v-647.216l8.943 3.399c55.271 20.021 116.224 31.664 179.481 33.792l21.166 0.356c74.302 0 145.982-13.105 209.686-37.516l-0.025 647.142c-58.395 31.292-131.698 49.087-209.66 49.087zM916.211 792.327c-77.936 0-151.215-17.783-209.599-49.055l-0.026-647.152c63.689 24.396 135.347 37.493 209.626 37.493 70.808 0 139.235-11.902 200.647-34.148l8.944-3.399v647.156l-1.090 0.635c-53.354 28.333-119.013 45.449-189.24 48.105l-19.26 0.363z" />
<glyph unicode="&#xe903;" horiz-adv-x="945" d="M880.855 311.7c-154.937-64.183-332.574 9.397-396.749 164.338-64.179 154.94 9.397 332.57 164.338 396.749 11.855 4.908 23.848 9.006 35.907 12.328-113.284 55.4-248.885 63.79-374.555 11.74-232.41-96.27-342.778-362.715-246.511-595.123 96.272-232.411 362.719-342.778 595.125-246.509 125.672 52.054 215.624 153.87 256.56 273.149-10.883-6.182-22.258-11.764-34.115-16.672z" />
<glyph unicode="&#xe904;" horiz-adv-x="945" d="M933.079 350.207c-9.072 7.524-21.856 8.655-32.104 2.836-9.993-5.671-20.409-10.762-30.966-15.131-33.699-13.961-69.106-21.039-105.236-21.039-111.798 0-211.683 66.739-254.464 170.026-28.14 67.939-28.141 142.77 0 210.709 28.141 67.936 81.054 120.85 148.985 148.989 10.598 4.386 21.566 8.154 32.595 11.192 11.365 3.131 19.608 12.967 20.702 24.705 1.093 11.738-5.187 22.929-15.778 28.105-66.081 32.321-139.718 49.402-212.942 49.402-63.531 0-125.75-12.428-184.923-36.934-119.402-49.462-212.397-142.458-261.855-261.859-49.46-119.402-49.46-250.915 0-370.317 37.342-90.152 100.060-165.981 181.373-219.29 79.346-52.020 171.266-79.517 265.822-79.517 63.552 0 125.786 12.432 184.978 36.953 128.128 53.069 227.46 158.825 272.529 290.142 3.826 11.15 0.355 23.504-8.717 31.028zM647.563 81.434c-52.275-21.655-107.21-32.637-163.273-32.637-173.452 0-328.42 103.546-394.798 263.797-43.66 105.405-43.66 221.505 0 326.91 43.662 105.408 125.755 187.504 231.162 231.164 52.258 21.644 107.174 32.618 163.221 32.618 41.743 0 83.653-6.295 123.82-18.44-148.49-79.52-215.573-260.814-149.779-419.648 25.627-61.865 68.663-113.9 124.46-150.485 54.44-35.69 117.513-54.553 182.399-54.553 32.607 0 64.709 4.766 95.799 14.201-46.305-86.383-121.303-154.946-213.010-192.927z" />
<glyph unicode="&#xe905;" glyph-name="duplicate" d="M625.778 960c90.892 0 165.186-71.049 170.377-160.639l0.29-10.028v-56.889h56.889c90.892 0 165.186-71.049 170.377-160.639l0.29-10.028v-455.111c0-90.892-71.048-165.186-160.639-170.377l-10.028-0.29h-455.111c-90.891 0-165.186 71.048-170.377 160.639l-0.29 10.028-1.417 57.010c-25.092 1.189-41.020 1.323-47.784 0.4l-7.688-0.522c-90.891 0-165.186 71.048-170.377 160.639l-0.29 10.028v455.111c0 90.89 71.050 165.186 160.639 170.377l10.028 0.29h455.111zM853.333 618.667l-455.111-0.383c-37.926-0.262-56.889-23.831-56.889-70.709s0-134.664 0-263.358v-177.55c0-29.176 21.961-53.22 50.254-56.506l6.635-0.383h455.111c29.176 0 53.22 21.96 56.506 50.254l0.383 6.635v455.111c0 29.175-21.961 53.22-50.254 56.506l-6.635 0.383zM625.778 846.222h-455.111c-29.175 0-53.22-21.961-56.506-50.254l-0.383-6.634v-455.111c0-22.218 12.736-41.461 31.306-50.826l6.397-2.746 2.461-0.7 73.614 1.991v279.836c0 87.524 65.884 159.66 150.763 169.518l9.875 0.858 10.028 0.29h284.444v56.889c0 26.931-18.712 49.491-43.844 55.386l-6.41 1.12-6.635 0.383z" />
<glyph unicode="&#xe906;" glyph-name="home" d="M1010.035 522.257l-469.334 426.666c-3.052 2.774-6.404 5.028-9.946 6.762-0.158 0.076-0.322 0.132-0.48 0.208-11.544 5.476-25.006 5.476-36.552 0-0.158-0.074-0.322-0.13-0.48-0.208-3.542-1.734-6.894-3.988-9.946-6.762l-469.33-426.666c-17.436-15.85-18.722-42.836-2.87-60.272 15.85-17.436 42.836-18.722 60.272-2.87l13.966 12.696v-493.126c0-23.564 19.102-42.666 42.666-42.666h768c23.564 0 42.666 19.102 42.666 42.666v493.126l13.966-12.696c17.436-15.852 44.42-14.566 60.272 2.87s14.566 44.42-2.87 60.272zM426.667 21.351v256c0 47.134 38.198 85.334 85.334 85.334s85.334-38.198 85.334-85.334v-256h-170.668zM853.335 21.351h-170.666v256c0 94.264-76.404 170.668-170.668 170.668s-170.666-76.404-170.666-170.666v-256.002h-170.668v528.028l341.334 310.31 341.334-310.31v-528.028z" />
<glyph unicode="&#xe907;" horiz-adv-x="853" d="M775.111 533.333c0-107.52-48.782-207.076-132.907-273.778-34.347-26.88-56.747-62.222-63.716-100.053-0.996 0.498-1.493 0.498-2.489 0.498h-298.667c-0.996 0-2.489 0-3.484-0.498-6.969 39.324-27.378 73.671-56.747 95.573-108.516 82.133-159.289 216.533-131.413 351.929 27.378 131.911 134.4 239.431 266.311 266.809 105.031 22.4 212.551-3.484 294.187-69.689 82.133-66.702 128.924-165.262 128.924-270.791v0z" />
<glyph unicode="&#xe908;" horiz-adv-x="853" d="M578.489 159.502c-1.493-8.462-2.489-16.924-2.489-25.884v-110.507c0-47.787-39.324-87.111-87.111-87.111h-124.444c-41.813 0-87.111 31.858-87.111 101.547v88.107c0 11.449-0.996 22.898-3.484 33.849 0.996 0.498 2.489 0.498 3.484 0.498h298.667c0.996 0 1.493 0 2.489-0.498z" />
<glyph unicode="&#xe909;" horiz-adv-x="853" d="M488.889-64h-124.444c-41.963 0-87.111 31.858-87.111 101.746v87.808c0 52.814-22.5 101.298-60.181 129.671-108.764 81.884-159.090 216.583-131.364 351.531 27.129 132.21 134.101 239.58 266.162 267.207 105.031 22.101 212.452-3.484 294.386-70.087 81.835-66.503 128.775-165.113 128.775-270.542 0-107.42-48.533-207.125-133.156-273.678-41.913-32.953-65.956-78.848-65.956-125.888v-110.656c0-48.036-39.076-87.111-87.111-87.111v0zM425.97 807.012c-19.513 0-39.175-2.041-58.837-6.123-103.339-21.604-187.015-105.628-208.27-209.116-21.852-106.375 17.671-212.501 103.14-276.864 56.299-42.411 89.948-113.195 89.948-189.355v-87.808c0-4.53 0.597-27.079 12.444-27.079h124.444c6.869 0 12.444 5.575 12.444 12.444v110.656c0 70.137 34.446 137.387 94.478 184.626 66.553 52.267 104.683 130.617 104.683 214.94 0 82.83-36.935 160.334-101.248 212.601-49.18 39.922-110.158 61.077-173.227 61.077z" />
<glyph unicode="&#xe90a;" glyph-name="link" d="M949.354 884.504c-9.376 9.366-19.218 18.012-29.244 25.696l-1.908 1.464c-1.218 1.16-2.514 2.246-3.876 3.248-40.634 29.918-85.214 45.088-132.504 45.088-73.786 0-150.538-37.67-221.96-108.934-0.696-0.696-1.366-1.416-2.010-2.16l-3.134-3.626-3.638-3.146c-0.74-0.64-1.456-1.306-2.146-1.998-71.266-71.376-108.936-148.13-108.936-221.96 0-31.554 7.372-62.984 21.906-93.418 0.752-1.574 1.606-3.096 2.556-4.558 3.022-4.65 14.092-21.5 25.904-37.264l-164.652-164.652c-15.622-15.622-15.622-40.95 0-56.57 7.81-7.81 18.048-11.714 28.286-11.714s20.474 3.904 28.286 11.714l96.16 96.16c4.14-7.154 8.222-14.68 11.618-21.444 9.248-19.472 13.938-39.188 13.938-58.604 0-51.862-29.222-108.69-84.536-164.418l-4.708-4.070c-1.464-1.268-2.836-2.638-4.104-4.104l-4.052-4.69c-55.772-55.314-112.606-84.544-164.428-84.544-28.836 0-56.524 9.264-82.346 27.542-0.82 0.746-1.674 1.458-2.556 2.134l-4.708 3.612c-7.276 5.576-14.472 11.908-21.392 18.818-33.954 33.906-51.17 70.938-51.17 110.064 0 51.868 29.23 108.704 84.542 164.43l4.708 4.076c1.454 1.258 2.814 2.62 4.072 4.074l4.064 4.696c52.866 52.44 106.448 81.7 155.020 84.626 22.050 1.33 38.85 20.284 37.52 42.336-1.33 22.050-20.298 38.864-42.336 37.52-69.65-4.2-139.542-40.828-207.728-108.864-0.69-0.692-1.356-1.406-1.994-2.144l-3.152-3.64-3.648-3.158c-0.732-0.634-1.444-1.296-2.128-1.982-71.27-71.376-108.94-148.13-108.94-221.968 0-61.136 25.114-117.214 74.642-166.674 9.376-9.366 19.218-18.012 29.244-25.696l1.908-1.464c1.218-1.16 2.514-2.246 3.876-3.248 40.634-29.918 85.214-45.088 132.504-45.088 73.786 0 150.538 37.67 221.96 108.934 0.696 0.696 1.366 1.416 2.010 2.16l3.134 3.626 3.638 3.146c0.74 0.64 1.456 1.306 2.146 1.998 71.266 71.376 108.936 148.13 108.936 221.96 0 31.55-7.372 62.98-21.906 93.414-0.104 0.216-0.208 0.434-0.316 0.648-2.716 5.434-12.94 25.458-25.168 44.15l161.676 161.676c15.622 15.622 15.622 40.95 0 56.57s-40.95 15.622-56.57 0l-94.080-94.080c-5.244 7.368-10.5 15.076-14.616 21.33-8.64 18.832-13.020 37.876-13.020 56.642 0 51.862 29.222 108.69 84.536 164.418l4.708 4.070c1.464 1.268 2.836 2.638 4.104 4.104l4.052 4.69c55.768 55.314 112.602 84.542 164.424 84.542 28.836 0 56.524-9.264 82.346-27.542 0.82-0.746 1.674-1.458 2.556-2.134l4.708-3.612c7.276-5.576 14.472-11.908 21.392-18.818 33.954-33.906 51.17-70.938 51.17-110.064 0-51.87-29.224-108.702-84.542-164.432l-4.708-4.074c-1.454-1.258-2.814-2.62-4.072-4.074l-4.060-4.694c-51.42-50.972-105.69-79.538-157.024-82.632-22.050-1.33-38.85-20.284-37.52-42.336 1.282-21.232 18.898-37.594 39.89-37.594 0.808 0 1.626 0.026 2.446 0.074 71.456 4.308 143.976 41.264 209.728 106.868 0.69 0.692 1.356 1.406 1.994 2.144l3.152 3.642 3.648 3.156c0.732 0.634 1.444 1.296 2.128 1.982 71.27 71.376 108.94 148.13 108.94 221.968 0 61.138-25.112 117.216-74.64 166.676z" />
<glyph unicode="&#xe90b;" glyph-name="next" horiz-adv-x="1078" d="M978.978 960c-53.759 0-97.344-43.588-97.344-97.347v0-791.916c0-53.762 43.585-97.344 97.344-97.344s97.344 43.585 97.344 97.344v0 791.916c0 53.759-43.585 97.347-97.344 97.347zM129.069 912.943c-25.261 17.252-58.012 19.158-85.058 4.898-27.065-14.315-44.012-42.399-44.012-72.96v0-756.321c0-30.709 17.039-58.843 44.228-73.056 27.188-14.254 60.032-12.215 85.25 5.272v0l559.325 387.814c19.937 13.83 31.821 36.596 31.75 60.835-0.093 24.294-12.095 46.961-32.106 60.656v0z" />
<glyph unicode="&#xe90c;" glyph-name="pause" d="M512.003 960c-282.754 0-512-229.236-512-512 0-282.754 229.246-512.010 512-512.010 282.771 0 512 229.257 512 512.010 0 282.764-229.222 512-512 512zM458.786 295.977c0-32.42-26.283-58.703-58.703-58.703s-58.703 26.283-58.703 58.703v304.053c0 32.42 26.283 58.703 58.703 58.703s58.703-26.283 58.703-58.703v-304.053zM679.1 295.977c0-32.42-26.286-58.703-58.703-58.703-32.42 0-58.703 26.283-58.703 58.703v304.053c0 32.42 26.283 58.703 58.703 58.703s58.703-26.283 58.703-58.703v-304.053z" />
<glyph unicode="&#xe90e;" glyph-name="quran-reflect" horiz-adv-x="807" d="M374.908 833.932c-4.838 42.026 39.841 126.478 91.202 100.518 23.521-11.889 79.090-46.491 85.394-73.744 4.223-18.259-13.8-32.993-10.15-50.695 3.912-18.971 25.479-28.86 31.364-47.426 12.625-39.826 3.405-89.004 22.324-125.089 15.288-29.16 41.017-110.716 75.428-118.967 12.837-3.078 30.997 2.825 49.602 8.862 0.519 0.043 0.858 0.119 0.933 0.194 26.54 8.716 53.706 17.234 67.623 0.341 27.417-33.277-14.375-77.916-23.916-107.912-27.908-87.748 20.212-198.189-33.513-279.324-25.796-38.964-90.328-70.050-131.794-89.525-84.142-39.512-159.503-68.465-252.56-68.503-49.095-0.011-89.652-0.663-133.295 28.367-91.704 60.993-123.961 177.030-154.651 275.582-10.107 32.455-41.915 41.644-55.312 70.567-16.965 36.623 30.771 89.342 48.605 118.961 47.294-18.186 86.162-53.979 126.28-84.187-4.913 26.574-10.237 52.052 6.268 75.953 33.785 48.922 121.147 64.42 81.892 140.793-12.683 24.673-42.327 36.11-60.098 56.86v0l21.047 21.047c-59.868 17.005-63.404 93.686-13.295 128.088 38.1 26.157 115.167 13.494 160.622 19.239zM515.219 665.559c-12.849-11.368-34.839-25.182-39.706-42.732-4.957-17.874 10.452-34.827 19.672-48.47 20.159-29.834 43.692-56.772 55.112-91.202-59.192 8.010-108.688 33.18-112.249 98.218-10.212-10.919-18.882-21.349-25.172-35.208-45.283-99.774 83.792-98.535 144.436-84.057 25.065-79.523 21.047-155.196 21.047-238.529 0-30.188 6.695-70.808-12.223-96.716-22.507-30.826-71.513-45.117-107.041-51.978-139.946-27.038-267.217 62.6-329.731 183.772-8.749-41.672 24.174-91.728 44.897-126.28 26.442-44.093 58.653-82.313 109.445-99.249 100.824-33.604 238.301 27.571 322.71 79.184 25.941 15.855 53.905 30.868 75.851 52.329 29.823 29.164 20.991 70.191 22.646 108.046 2.982 67.961-3.017 149.181 27.789 210.466l-133.295-42.093c0.656 86.164-27.726 157.152-84.187 224.497zM346.846 714.668c-17.742-12.42-41.399-25.29-43.43-49.39-2.187-25.957 16.302-51.674 20.56-76.89 8.545-50.609 13.572-139.421-0.406-188.9-12.634-44.723-46.192 1.971-57.294 20.381-7.039 11.673-12.451 22.688-17.647 35.224-42.117-37.379 9.103-92.505 28.062-133.295l42.093 35.078c18.646-78.317-31.298-232.678 84.187-245.544-62.972 55.156-49.109 140.83-49.109 217.482 62.872-9.244 116.298-22.295 161.358 35.078-20.738-8.506-41.176-19.322-63.14-24.349-29.573-6.769-79.777-8.2-93.984 25.285-9.305 21.931-4.233 52.927-4.233 76.234v182.404c0 29.888 4.638 63.43-7.016 91.202zM536.266 307.766h-14.031c-29.202-33.951-68.954-41.195-112.249-42.093 0-22.751-10.543-81.836 11.249-96.309 16.85-11.19 41.825 2.834 58.907 6.686 19.513 4.399 36.746 1.859 56.124-1.578v133.295zM269.675 244.626l-42.093-28.062c11.599-24.323 25.292-36.628 49.109-49.109l0.076 7.818 0.318 15.747c0.272 18.398-0.337 36.751-7.41 53.605zM185.488 377.922c-31.661-36.766-44.396-57.219-14.031-98.218 45.432 28.76 56.119 59.181 14.031 98.218zM66.224 398.968l-14.031-28.062c10.67-5.837 22.495-14.28 34.834-16.186 17.129-2.645 28.718 11.049 16.678 25.772-9.272 11.338-24.31 14.516-37.481 18.475zM409.986 420.015v-35.078c19.153 0.824 37.282 3.502 56.124 7.016-17.624 11.298-37.123 19.116-56.124 28.062zM409.986 721.684v-84.187c22.14 15.96 36.515 31.889 49.109 56.124l-49.109 28.062zM466.11 784.823l-7.016-35.078 42.093-21.047c2.538 30.109-8.341 43.207-35.078 56.124zM241.613 770.792c31.837-13.359 72.232-7.857 105.233 0-30.809 11.953-73.818 9.268-105.233 0zM445.064 883.041l-7.016-21.047c14.387-15.196 24.253-30.731 42.093-42.093l14.031 35.078-49.109 28.062z" />
<glyph unicode="&#xe90f;" glyph-name="search" d="M411.697 136.961c91.431-0.002 180.246 30.503 252.378 86.685l272.131-272.131c20.329-19.633 52.723-19.070 72.356 1.259 19.152 19.831 19.152 51.269 0 71.097l-272.131 272.131c139.413 179.462 106.948 437.959-72.513 577.372s-437.957 106.948-577.37-72.513c-139.413-179.462-106.948-437.959 72.513-577.372 72.25-56.127 161.145-86.575 252.635-86.528zM193.042 767.038c120.761 120.763 316.553 120.766 437.317 0.004s120.766-316.553 0.004-437.317c-120.761-120.763-316.553-120.766-437.317-0.004-0.002 0.002-0.002 0.002-0.004 0.004-120.761 119.881-121.473 314.96-1.591 435.721 0.53 0.532 1.059 1.062 1.591 1.591z" />
<glyph unicode="&#xe910;" glyph-name="minus" horiz-adv-x="3755" d="M3578.667 70.789v889.211h-3578.667v-889.211z" />
<glyph unicode="&#xe911;" glyph-name="plus" d="M555.558 14.736v384.269h386.987v177.634h-386.987v383.362h-169.477v-383.362h-386.081v-177.634h386.081v-384.269z" />
<glyph unicode="&#xe912;" d="M512 692.781c-134.969 0-244.781-109.812-244.781-244.781s109.812-244.781 244.781-244.781c134.969 0 244.781 109.812 244.781 244.781s-109.812 244.781-244.781 244.781zM512 264.414c-101.227 0-183.586 82.359-183.586 183.586s82.359 183.586 183.586 183.586c101.227 0 183.586-82.359 183.586-183.586s-82.359-183.586-183.586-183.586z" />
<glyph unicode="&#xe913;" d="M999.906 564.594l-78.703 17.109c-6.844 20.953-15.32 41.391-25.328 61.078l43.57 67.773c7.781 12.109 6.070 28.008-4.102 38.18l-122.609 122.609c-10.172 10.172-26.070 11.883-38.18 4.102l-67.773-43.57c-19.688 10.008-40.125 18.484-61.078 25.328l-17.109 78.703c-3.055 14.063-15.508 24.094-29.898 24.094h-173.391c-14.391 0-26.844-10.031-29.898-24.094l-17.109-78.703c-20.953-6.844-41.391-15.32-61.078-25.328l-67.773 43.57c-12.109 7.781-28.008 6.070-38.18-4.102l-122.609-122.609c-10.172-10.172-11.883-26.070-4.102-38.18l43.57-67.773c-10.008-19.688-18.484-40.125-25.328-61.078l-78.703-17.109c-14.063-3.062-24.094-15.508-24.094-29.898v-173.391c0-14.391 10.031-26.836 24.094-29.898l78.703-17.109c6.844-20.953 15.32-41.391 25.328-61.078l-43.57-67.773c-7.781-12.109-6.070-28.008 4.102-38.18l122.609-122.609c10.172-10.172 26.070-11.883 38.18-4.102l67.773 43.57c19.688-10.008 40.125-18.484 61.078-25.328l17.109-78.703c3.055-14.062 15.508-24.094 29.898-24.094h173.391c14.391 0 26.844 10.031 29.898 24.094l17.109 78.703c20.953 6.844 41.391 15.32 61.078 25.328l67.773-43.57c12.109-7.781 28.008-6.078 38.18 4.102l122.609 122.609c10.172 10.172 11.883 26.070 4.102 38.18l-43.57 67.773c10.008 19.688 18.484 40.125 25.328 61.078l78.703 17.109c14.062 3.062 24.094 15.508 24.094 29.898v173.391c0 14.391-10.031 26.836-24.094 29.898zM962.805 385.969l-72.164-15.688c-11.086-2.414-19.93-10.758-22.977-21.68-7.93-28.445-19.336-55.953-33.898-81.758-5.578-9.883-5.234-22.039 0.906-31.586l39.961-62.156-87.727-87.734-62.164 39.961c-9.547 6.141-21.703 6.484-31.578 0.906-25.812-14.562-53.32-25.969-81.766-33.898-10.922-3.047-19.266-11.891-21.68-22.977l-15.688-72.164h-124.062l-15.688 72.164c-2.414 11.086-10.758 19.93-21.68 22.977-28.445 7.93-55.953 19.336-81.758 33.898-9.883 5.578-22.039 5.227-31.586-0.906l-62.156-39.961-87.727 87.734 39.953 62.156c6.141 9.547 6.492 21.703 0.914 31.586-14.563 25.805-25.969 53.312-33.906 81.758-3.047 10.922-11.883 19.266-22.969 21.68l-72.172 15.688v124.062l72.164 15.688c11.086 2.414 19.93 10.758 22.977 21.68 7.93 28.445 19.336 55.953 33.898 81.758 5.578 9.883 5.234 22.039-0.906 31.586l-39.961 62.156 87.727 87.734 62.164-39.961c9.547-6.141 21.703-6.484 31.578-0.906 25.812 14.562 53.32 25.969 81.766 33.898 10.922 3.047 19.266 11.891 21.68 22.977l15.688 72.164h124.062l15.688-72.164c2.414-11.086 10.758-19.93 21.68-22.977 28.445-7.93 55.953-19.336 81.758-33.898 9.883-5.578 22.039-5.227 31.586 0.906l62.156 39.961 87.727-87.734-39.953-62.156c-6.141-9.547-6.492-21.703-0.914-31.586 14.57-25.805 25.969-53.313 33.906-81.758 3.047-10.922 11.883-19.266 22.969-21.68l72.172-15.688v-124.062z" />
<glyph unicode="&#xe914;" glyph-name="settings1" d="M682.667 426.667c0 47.104-19.157 89.856-50.005 120.661s-73.557 50.005-120.661 50.005-89.856-19.157-120.661-50.005-50.005-73.557-50.005-120.661 19.157-89.856 50.005-120.661 73.557-50.005 120.661-50.005 89.856 19.157 120.661 50.005 50.005 73.557 50.005 120.661zM597.333 426.667c0-23.595-9.515-44.843-25.003-60.331s-36.736-25.003-60.331-25.003-44.843 9.515-60.331 25.003-25.003 36.736-25.003 60.331 9.515 44.843 25.003 60.331 36.736 25.003 60.331 25.003 44.843-9.515 60.331-25.003 25.003-36.736 25.003-60.331zM866.773 281.43c1.963 4.48 4.779 8.149 8.192 10.965 4.779 3.925 10.709 6.229 17.195 6.272h3.84c35.328 0 67.413 14.379 90.496 37.504s37.504 55.168 37.504 90.496-14.379 67.413-37.504 90.496-55.168 37.504-90.496 37.504h-6.784c-4.693 0.043-9.173 1.195-13.141 3.243-5.419 2.816-9.813 7.339-12.459 13.312-0.128 1.237-0.171 2.517-0.171 3.797-1.024 2.347-1.707 4.736-2.091 7.168 0.853 14.251 3.285 19.371 7.168 23.339l2.645 2.645c24.96 25.003 37.461 57.856 37.419 90.539s-12.544 65.536-37.589 90.539c-25.003 24.96-57.856 37.461-90.539 37.419s-65.536-12.544-90.453-37.504l-1.963-1.963c-3.541-3.413-7.808-5.803-12.288-7.083-5.973-1.664-12.416-1.365-18.688 1.408-4.309 1.877-7.979 4.693-10.795 8.107-3.925 4.779-6.229 10.709-6.272 17.195v3.84c0 35.328-14.379 67.413-37.504 90.496s-55.168 37.504-90.496 37.504-67.413-14.379-90.496-37.504-37.504-55.168-37.504-90.496v-6.784c-0.043-4.693-1.195-9.173-3.243-13.141-2.816-5.419-7.339-9.813-13.312-12.459-1.237-0.128-2.517-0.171-3.797-0.171-2.347-1.024-4.736-1.707-7.168-2.091-14.293 0.896-19.413 3.328-23.381 7.211l-2.645 2.645c-25.003 24.96-57.813 37.461-90.539 37.461s-65.493-12.544-90.539-37.632c-24.96-25.003-37.461-57.813-37.461-90.539s12.544-65.536 37.504-90.453l2.048-2.005c3.413-3.541 5.803-7.808 7.083-12.288 1.664-5.973 1.365-12.416-1.323-18.517-0.256-0.683-0.555-1.451-0.896-2.219-1.749-4.651-4.608-8.661-8.149-11.733-4.693-4.053-10.667-6.528-16.341-6.656h-3.84c-35.328 0-67.413-14.379-90.496-37.504s-37.504-55.211-37.504-90.539 14.379-67.413 37.504-90.496 55.168-37.504 90.496-37.504h6.784c4.693-0.043 9.173-1.195 13.141-3.243 5.461-2.859 9.941-7.424 12.629-13.696 1.024-2.347 1.707-4.736 2.091-7.168-0.853-14.251-3.285-19.371-7.168-23.339l-2.645-2.645c-24.96-25.003-37.461-57.856-37.419-90.539s12.544-65.536 37.589-90.539c25.003-24.96 57.856-37.461 90.539-37.419s65.536 12.544 90.453 37.504l2.005 2.048c3.541 3.413 7.808 5.803 12.288 7.083 5.973 1.664 12.416 1.365 18.517-1.323 0.683-0.256 1.451-0.555 2.219-0.896 4.651-1.749 8.661-4.608 11.733-8.149 4.053-4.693 6.528-10.667 6.656-16.341v-3.925c0-35.328 14.379-67.413 37.504-90.496s55.168-37.504 90.496-37.504 67.413 14.379 90.496 37.504 37.504 55.168 37.504 90.496v6.784c0.043 4.693 1.195 9.173 3.243 13.141 2.859 5.461 7.424 9.941 13.696 12.629 2.347 1.024 4.736 1.707 7.168 2.091 14.251-0.853 19.371-3.285 23.339-7.168l2.645-2.645c25.003-24.96 57.856-37.461 90.539-37.419s65.536 12.544 90.539 37.589c24.96 25.003 37.461 57.856 37.419 90.539s-12.544 65.536-37.504 90.453l-2.048 2.005c-3.413 3.541-5.803 7.808-7.083 12.288-1.664 5.973-1.365 12.416 1.323 18.517zM784.896 541.782c-0.512 8.576-1.621 12.672-3.243 16.299v-3.413c0-1.835 0.128-3.584 0.341-5.333 0.896-2.56 1.835-5.077 2.901-7.552 0.171-3.84 0.213-3.883 0.213-3.925 10.624-24.789 29.184-43.947 51.541-55.595 15.829-8.235 33.493-12.715 51.669-12.928h7.68c11.776 0 22.4-4.736 30.165-12.501s12.501-18.389 12.501-30.165-4.736-22.4-12.501-30.165-18.389-12.501-30.165-12.501h-3.84c-27.179-0.128-52.053-9.728-71.467-25.728-13.781-11.349-24.789-25.899-32-42.368-10.965-24.832-12.288-51.627-5.419-76.032 5.077-18.048 14.549-34.731 27.819-48.469l3.072-3.115c8.363-8.363 12.544-19.2 12.544-30.165s-4.139-21.845-12.459-30.165c-8.405-8.405-19.243-12.587-30.251-12.587s-21.845 4.139-30.165 12.459l-2.603 2.603c-19.755 19.328-44.373 29.952-69.632 32.085-18.645 1.579-37.632-1.451-55.168-9.045-24.661-10.581-43.819-29.141-55.467-51.456-8.235-15.829-12.715-33.493-12.928-51.669v-7.723c0-11.776-4.736-22.4-12.501-30.165s-18.347-12.459-30.123-12.459-22.4 4.736-30.165 12.501-12.501 18.389-12.501 30.165v3.84c-0.64 28.16-10.88 52.992-27.477 72.192-12.117 13.995-27.563 24.96-45.141 31.744-24.533 10.539-50.901 11.691-74.923 4.949-18.048-5.077-34.731-14.549-48.469-27.819l-3.115-3.072c-8.363-8.363-19.2-12.544-30.165-12.544s-21.845 4.139-30.165 12.459c-8.405 8.405-12.587 19.243-12.587 30.251s4.139 21.845 12.459 30.165l2.603 2.603c19.328 19.755 29.952 44.373 32.085 69.632 1.579 18.645-1.451 37.632-9.045 55.168-10.581 24.661-29.141 43.819-51.456 55.467-15.829 8.235-33.493 12.715-51.669 12.928l-7.68-0.043c-11.776 0-22.4 4.736-30.165 12.501s-12.501 18.389-12.501 30.165 4.736 22.4 12.501 30.165 18.389 12.501 30.165 12.501h3.84c28.16 0.64 52.992 10.88 72.192 27.477 13.995 12.117 24.96 27.563 31.744 45.141 10.539 24.533 11.691 50.901 4.949 74.923-5.077 18.048-14.549 34.731-27.819 48.469l-3.115 3.115c-8.363 8.363-12.544 19.2-12.544 30.165s4.139 21.845 12.459 30.165c8.405 8.405 19.243 12.587 30.251 12.587s21.845-4.139 30.165-12.459l2.603-2.603c19.755-19.328 44.373-29.952 69.632-32.085 15.787-1.365 31.787 0.597 46.976 5.845 4.096 0.512 7.936 1.536 11.349 3.072-1.323-0.043-2.603-0.128-3.797-0.171-8.576-0.512-12.672-1.621-16.299-3.243h3.413c1.835 0 3.584 0.128 5.333 0.341 2.56 0.896 5.077 1.835 7.552 2.901 3.84 0.171 3.883 0.213 3.925 0.213 24.789 10.624 43.947 29.184 55.595 51.541 8.235 15.787 12.715 33.493 12.928 51.627v7.723c0 11.776 4.736 22.4 12.501 30.165s18.389 12.501 30.165 12.501 22.4-4.736 30.165-12.501 12.501-18.389 12.501-30.165v-3.84c0.128-27.179 9.728-52.053 25.728-71.467 11.349-13.781 25.899-24.789 42.496-32.043 24.661-10.88 51.456-12.203 75.861-5.333 18.048 5.077 34.731 14.549 48.469 27.819l3.115 3.072c8.363 8.363 19.2 12.544 30.165 12.544s21.845-4.139 30.165-12.459c8.405-8.405 12.587-19.243 12.587-30.251s-4.139-21.845-12.459-30.165l-2.603-2.603c-19.328-19.755-29.952-44.373-32.085-69.632-1.365-15.787 0.597-31.787 5.845-46.976 0.512-4.053 1.579-7.893 3.072-11.349-0.043 1.365-0.085 2.645-0.171 3.797z" />
<glyph unicode="&#xe915;" glyph-name="x" d="M874.252 788.789c-199.652 199.652-524.614 199.652-724.266 0-96.712-96.75-149.986-225.356-149.986-362.132s53.274-265.382 149.986-362.094c99.846-99.846 230.99-149.748 362.132-149.748s262.288 49.902 362.132 149.748c199.652 199.652 199.652 524.536 0.002 724.226zM818.16 120.655c-168.75-168.75-443.334-168.75-612.084 0-81.716 81.716-126.74 190.408-126.74 306.002s45.024 224.286 126.74 306.042c168.75 168.75 443.334 168.71 612.084 0 168.71-168.75 168.71-443.334 0-612.044zM683.050 317.013l-112.302 112.142 112.302 112.142c15.47 15.47 15.47 40.58 0.040 56.092-15.51 15.55-40.62 15.51-56.13 0.040l-112.38-112.222-112.38 112.222c-15.51 15.47-40.62 15.51-56.13-0.040-15.47-15.51-15.47-40.62 0.040-56.092l112.302-112.142-112.302-112.142c-15.51-15.47-15.51-40.58-0.040-56.092 7.736-7.774 17.93-11.622 28.086-11.622s20.31 3.888 28.046 11.584l112.38 112.222 112.38-112.222c7.736-7.736 17.89-11.584 28.046-11.584s20.35 3.888 28.086 11.622c15.466 15.512 15.466 40.622-0.044 56.092z" />
<glyph unicode="&#xe916;" glyph-name="play1" d="M512 960c-282.791 0-512-229.209-512-512 0-282.788 229.209-512 512-512 282.788 0 512 229.212 512 512 0 282.791-229.212 512-512 512zM756.993 406.894l-305.404-210.101c-8.496-5.819-18.385-8.795-28.3-8.795-7.981 0-15.904 1.896-23.201 5.708-16.399 8.675-26.697 25.679-26.697 44.187v420.209c0 18.508 10.299 35.515 26.697 44.19 16.399 8.602 36.212 7.417 51.501-3.087l305.404-210.098c13.514-9.304 21.612-24.696 21.612-41.106s-8.095-31.803-21.612-41.106z" />
<glyph unicode="&#xe917;" glyph-name="share-2" d="M691.797 166.486c1.067 1.408 2.048 2.859 2.987 4.437 0.853 1.493 1.621 3.029 2.304 4.565 3.115 4.608 6.656 8.917 10.581 12.843 15.488 15.488 36.736 25.003 60.331 25.003s44.843-9.515 60.331-25.003 25.003-36.736 25.003-60.331-9.515-44.843-25.003-60.331-36.736-25.003-60.331-25.003-44.843 9.515-60.331 25.003-25.003 36.736-25.003 60.331c0 13.867 3.285 26.923 9.131 38.485zM695.509 680.278c-0.384 0.725-0.768 1.451-1.195 2.176s-0.853 1.451-1.323 2.133c-6.571 12.075-10.325 25.941-10.325 40.747 0 23.595 9.515 44.843 25.003 60.331s36.736 25.003 60.331 25.003 44.843-9.515 60.331-25.003 25.003-36.736 25.003-60.331-9.515-44.843-25.003-60.331-36.736-25.003-60.331-25.003-44.843 9.515-60.331 25.003c-4.608 4.608-8.704 9.728-12.16 15.275zM328.491 471.723c0.384-0.725 0.768-1.451 1.195-2.176s0.853-1.451 1.323-2.133c6.571-12.075 10.325-25.941 10.325-40.747s-3.755-28.672-10.368-40.789c-0.469-0.683-0.896-1.408-1.323-2.133s-0.811-1.408-1.152-2.133c-3.456-5.547-7.552-10.667-12.16-15.275-15.488-15.488-36.736-25.003-60.331-25.003s-44.843 9.515-60.331 25.003-25.003 36.736-25.003 60.331 9.515 44.843 25.003 60.331 36.736 25.003 60.331 25.003 44.843-9.515 60.331-25.003c4.608-4.608 8.704-9.728 12.16-15.275zM603.733 678.912l-226.475-132.139c-0.171 0.213-0.384 0.384-0.597 0.597-30.805 30.805-73.557 49.963-120.661 49.963s-89.856-19.157-120.661-50.005-50.005-73.557-50.005-120.661 19.157-89.856 50.005-120.661 73.557-50.005 120.661-50.005 89.856 19.157 120.661 50.005c0.213 0.213 0.384 0.384 0.597 0.597l226.517-132.011c-4.181-14.805-6.443-30.464-6.443-46.592 0-47.104 19.157-89.856 50.005-120.661s73.557-50.005 120.661-50.005 89.856 19.157 120.661 50.005 50.005 73.557 50.005 120.661-19.157 89.856-50.005 120.661-73.557 50.005-120.661 50.005-89.856-19.157-120.661-50.005c-0.128-0.128-0.299-0.299-0.427-0.427l-226.645 132.053c4.181 14.763 6.4 30.293 6.4 46.379s-2.219 31.659-6.4 46.421l226.475 132.181c0.171-0.213 0.384-0.384 0.597-0.597 30.805-30.848 73.557-50.005 120.661-50.005s89.856 19.157 120.661 50.005 50.005 73.557 50.005 120.661-19.157 89.856-50.005 120.661-73.557 50.005-120.661 50.005-89.856-19.157-120.661-50.005-50.005-73.557-50.005-120.661c0-16.085 2.219-31.659 6.4-46.421z" />
<glyph unicode="&#xe919;" glyph-name="about" d="M512 960c282.984 0 512-228.994 512-512 0-282.986-228.994-512-512-512-282.986 0-512 228.994-512 512 0 282.986 228.994 512 512 512zM512 880c-238.77 0-432-193.214-432-432 0-238.77 193.214-432 432-432 238.768 0 432 193.214 432 432 0 238.77-193.214 432-432 432zM512 531.34c22.092 0 40-17.908 40-40v0-257.584c0-22.092-17.908-40.002-40-40.002s-40 17.908-40 40v0 257.586c0 22.092 17.908 40 40 40zM512 688.32c29.823 0 54-24.177 54-54s-24.177-54-54-54c-29.823 0-54 24.177-54 54s24.177 54 54 54z" />
<glyph unicode="&#xe91a;" glyph-name="contribute" horiz-adv-x="983" d="M307.2 850.56c9.057-0.025 17.645-4.035 23.477-10.964s8.32-16.074 6.8-25.003c-3.173-15.131-16.692-25.843-32.148-25.473v0h-116.863l-109.21-230.4h824.525l-109.21 230.4h-88.013c-9.057 0.024-17.645 4.035-23.478 10.964s-8.321 16.075-6.801 25.004c3.173 15.131 16.692 25.843 32.148 25.473v0h105.65c11.854-0.038 22.647-6.836 27.802-17.51v0l136.738-289.248c2.911-6.157 4.42-12.883 4.42-19.694v0-502.988c-0.074-25.418-20.662-46.006-46.080-46.080v0h-890.88c-25.418 0.074-46.006 20.662-46.080 46.080v0 506.88c0.11 4.55 1.101 9.036 2.918 13.21v0l138.24 291.84c5.155 10.674 15.948 17.472 27.802 17.51v0zM921.6 497.28h-860.16v-460.8h860.16v460.8zM829.44 159.36c16.966 0 30.72-13.754 30.72-30.72s-13.754-30.72-30.72-30.72c-16.966 0-30.72 13.754-30.72 30.72s13.754 30.72 30.72 30.72zM491.565 417.72c47.561 29.24 108.918 22.367 148.83-16.673 22.533-22.346 35.211-52.765 35.211-84.499s-12.667-62.156-35.196-84.506v0l-126.99-125.272c-12.215-11.801-31.585-11.801-43.8 0v0l-126.975 125.265c-22.535 22.347-35.212 52.769-35.212 84.506s12.676 62.159 35.212 84.506c39.943 39.051 101.33 45.924 148.92 16.673zM597.255 357.307c-23.294 22.8-60.54 22.8-83.835 0-11.959-11.854-31.179-12.040-43.365-0.42-23.264 23.125-60.777 23.312-84.27 0.42-10.901-10.766-17.035-25.451-17.032-40.773s6.142-30.004 17.047-40.767v0l105.72-104.302 105.735 104.309c10.898 10.766 17.031 25.447 17.031 40.766s-6.133 30-17.031 40.766zM529.473 957.034c10.6 2.87 21.927-0.138 29.707-7.888s10.832-19.065 8.003-29.676v0l-3.941-14.844 44.535-11.826c16.397-4.354 26.16-21.176 21.806-37.573s-21.176-26.16-37.573-21.806v0l-89.070 23.65c-10.607 2.816-21.911-0.24-29.654-8.018s-10.748-19.095-7.883-29.69c2.864-10.594 11.163-18.856 21.77-21.672v0l29.689-7.884c41.706-11.143 70.112-49.713 68.378-92.847v0h105.959c16.966 0 30.72-13.754 30.72-30.72s-13.754-30.72-30.72-30.72v0h-399.36c-16.966 0-30.72 13.754-30.72 30.72s13.754 30.72 30.72 30.72v0h231.721c1.927 15.202-7.665 29.492-22.464 33.467v0l-29.691 7.882c-46.304 12.265-75.477 57.975-67.101 105.138s51.505 80.032 99.2 75.603v0l4.298 16.187c2.808 10.617 11.070 18.927 21.67 21.797z" />
<glyph unicode="&#xe91b;" glyph-name="dev" d="M934 960c49.626 0 90-40.374 90-90v0-840c0-49.626-40.374-90-90-90v0h-844c-49.626 0-90 40.374-90 90v0 840c0 49.626 40.374 90 90 90v0zM964 660h-904v-630c0-16.542 13.458-30 30-30v0h844c16.542 0 30 13.458 30 30v0 630zM574.426 551.818c6.526 15.228 24.164 22.282 39.392 15.756s22.284-24.162 15.756-39.392v0l-180-420c-6.524-15.224-24.158-22.284-39.392-15.756-15.228 6.526-22.284 24.164-15.756 39.392v0zM313.26 473.426c12.932 10.35 31.814 8.254 42.166-4.684 10.35-12.94 8.254-31.818-4.686-42.168v0l-120.716-96.574 120.716-96.576c12.94-10.348 15.036-29.228 4.686-42.166-10.346-12.936-29.228-15.036-42.166-4.684v0l-150 120c-15.008 12.004-14.998 34.858 0 46.852v0zM668.574 468.742c10.348 12.938 29.228 15.036 42.166 4.684v0l150-120c15.008-12.004 14.998-34.856 0-46.85v0l-150-120c-12.92-10.34-31.802-8.268-42.166 4.684-10.35 12.938-8.254 31.816 4.686 42.166v0l120.716 96.574-120.716 96.576c-12.94 10.348-15.036 29.228-4.686 42.166zM934 900h-844c-16.542 0-30-13.458-30-30v0-150h904v150c0 16.542-13.458 30-30 30v0zM152 840c16.569 0 30-13.431 30-30s-13.431-30-30-30c-16.569 0-30 13.431-30 30s13.431 30 30 30zM272 840c16.569 0 30-13.431 30-30s-13.431-30-30-30c-16.569 0-30 13.431-30 30s13.431 30 30 30zM392 840c16.569 0 30-13.431 30-30s-13.431-30-30-30c-16.569 0-30 13.431-30 30s13.431 30 30 30zM872 840c16.568 0 30-13.432 30-30s-13.432-30-30-30v0h-180c-16.568 0-30 13.432-30 30s13.432 30 30 30v0z" />
<glyph unicode="&#xe91c;" glyph-name="help" d="M512 960c283.006 0 512-229.032 512-512 0-283.006-229.034-512-512-512v0h-472c-22.092 0-40 17.908-40 40v0 472c0 283.006 229.032 512 512 512zM512 880c-238.786 0-432-193.246-432-432v0-432h432c238.786 0 432 193.246 432 432 0 238.786-193.246 432-432 432zM496.316 273.56c29.282 0 53.68-24.4 53.68-53.68 0-28.584-23.704-53.68-53.68-53.68s-52.982 25.098-52.982 53.68c0 29.28 23.704 53.68 52.982 53.68zM505.38 679.996c89.234 0 148.492-49.498 148.492-115.030s-59.258-112.938-78.080-127.578c-38.342-29.976-39.042-50.89-39.042-87.142 0-13.246-6.97-28.582-41.13-28.582-28.584 0-38.342 10.458-38.342 46.708 0 59.954 26.492 88.538 46.708 105.966 23.006 19.52 62.046 41.13 62.046 78.778 0 32.068-27.886 47.406-62.744 47.406-71.108 0-55.772-53.68-93.416-53.68-18.824 0-41.828 12.548-41.828 39.738 0 37.646 43.222 93.416 137.336 93.416z" />
<glyph unicode="&#xe91d;" glyph-name="phone" horiz-adv-x="640" d="M534.466 960c55.24 0 100.174-44.944 100.174-100.174v0-823.652c0.778-25.578-9.028-50.788-27.636-69.978-18.622-19.188-44.656-30.196-71.424-30.196v0h-434.088c-55.23 0-100.174 44.934-100.174 100.174v0 823.652c0 55.23 44.944 100.174 100.174 100.174v0zM567.846 118.571h-499.755l0.009-82.397c0-16.876 12.589-30.871 28.868-33.087l4.524-0.305h434.086c8.95 0 17.286 3.516 23.486 9.928 5.932 6.112 9.060 14.092 8.806 22.462v0l-0.024 83.399zM346.362 95.166c18.442 0 33.392-14.948 33.392-33.392s-14.948-33.392-33.392-33.392v0h-55.652c-18.444 0-33.392 14.948-33.392 33.392s14.948 33.392 33.392 33.392v0zM567.846 763.008h-499.755v-577.664h499.755v577.664zM534.466 893.218h-432.974c-18.41 0-33.392-14.982-33.392-33.392v0l-0.009-30.045h499.755l0.012 30.045c0 16.876-12.589 30.871-28.868 33.087l-4.524 0.305z" />
<glyph unicode="&#xe91e;" glyph-name="next1" horiz-adv-x="1078" d="M980.551 958.382c-53.759 0-97.344-43.588-97.344-97.347v0-791.916c0-53.762 43.585-97.344 97.344-97.344s97.344 43.585 97.344 97.344v0 791.916c0 53.759-43.585 97.347-97.344 97.347zM130.641 911.325c-25.261 17.252-58.012 19.158-85.058 4.898-27.065-14.315-44.011-42.399-44.011-72.96v0-756.321c0-30.709 17.039-58.843 44.228-73.056 27.188-14.254 60.032-12.215 85.249 5.272v0l559.325 387.814c19.936 13.83 31.821 36.596 31.75 60.835-0.093 24.294-12.095 46.961-32.106 60.656v0z" />
<glyph unicode="&#xe91f;" glyph-name="prev" horiz-adv-x="1078" d="M97.344 958.382c53.759 0 97.344-43.588 97.344-97.347v0-791.916c0-53.762-43.585-97.344-97.344-97.344s-97.344 43.585-97.344 97.344v0 791.916c0 53.759 43.585 97.347 97.344 97.347zM947.253 911.325c25.261 17.252 58.012 19.158 85.058 4.898 27.065-14.315 44.011-42.399 44.011-72.96v0-756.321c0-30.709-17.039-58.843-44.228-73.056-27.188-14.254-60.032-12.215-85.249 5.272v0l-559.325 387.814c-19.936 13.83-31.821 36.596-31.75 60.835 0.093 24.294 12.095 46.961 32.106 60.656v0z" />
<glyph unicode="&#xe920;" glyph-name="repeat" d="M890.926 202.096l-172.070 19.118c-15.126 1.684-30.198-3.601-40.96-14.363l-0.057-0.057c-12.032-12.032-16.431-29.727-11.434-45.992s18.571-28.439 35.282-31.642l36.329-7.104c-66.423-46.64-145.685-71.514-226.846-71.187-122.998 0.081-238.996 57.228-314.015 154.699s-100.564 224.234-69.155 343.154c8.048 30.372-10.048 61.517-40.42 69.566s-61.517-10.048-69.566-40.42c-56.693-212.523 29.407-437.434 213.524-557.771s424.674-108.926 596.574 28.299l11.090-56.718c3.202-16.71 15.374-30.283 31.638-35.28s33.957-0.598 45.989 11.432l0.061 0.061c10.762 10.762 16.047 25.834 14.363 40.96l-19.134 172.051c-1.24 11.151-10.042 19.953-21.193 21.193v0zM512.815 958.908c-115.153-0.384-226.809-39.6-316.913-111.305l-11.090 56.718c-3.202 16.71-15.374 30.283-31.638 35.28s-33.957 0.598-45.989-11.432l-0.061-0.061c-10.762-10.762-16.047-25.834-14.363-40.96l19.118-172.051c1.24-11.151 10.042-19.953 21.193-21.193l172.070-19.118c15.126-1.684 30.198 3.601 40.96 14.363l0.057 0.057c12.032 12.032 16.431 29.727 11.434 45.992s-18.571 28.439-35.282 31.642l-36.352 7.1c66.422 46.641 145.684 71.516 226.846 71.191 123.002-0.074 239.007-57.218 314.030-154.69s100.572-224.24 69.162-343.163c-8.029-30.376 10.074-61.513 40.444-69.564 4.764-1.253 9.668-1.896 14.594-1.896 25.797 0.024 48.353 17.397 54.962 42.333 40.424 153.059 7.54 316.212-89.018 441.663s-245.86 198.998-404.167 199.096v0z" />
<glyph unicode="&#xe921;" glyph-name="menu" d="M874.040 810.040c-96.706 96.702-225.28 149.96-362.040 149.96s-265.334-53.258-362.040-149.96c-96.702-96.706-149.96-225.28-149.96-362.040s53.258-265.334 149.96-362.040c96.706-96.702 225.28-149.96 362.040-149.96s265.334 53.258 362.040 149.96c96.702 96.706 149.96 225.28 149.96 362.040s-53.258 265.334-149.96 362.040zM512-4c-249.234 0-452 202.766-452 452s202.766 452 452 452 452-202.766 452-452-202.766-452-452-452zM272 538c-49.626 0-90-40.374-90-90s40.374-90 90-90 90 40.374 90 90-40.374 90-90 90zM272 418c-16.542 0-30 13.458-30 30s13.458 30 30 30 30-13.458 30-30-13.458-30-30-30zM752 538c-49.626 0-90-40.374-90-90s40.374-90 90-90 90 40.374 90 90-40.374 90-90 90zM752 418c-16.542 0-30 13.458-30 30s13.458 30 30 30 30-13.458 30-30-13.458-30-30-30zM512 538c-49.626 0-90-40.374-90-90s40.374-90 90-90 90 40.374 90 90-40.374 90-90 90zM512 418c-16.542 0-30 13.458-30 30s13.458 30 30 30 30-13.458 30-30-13.458-30-30-30z" />
<glyph unicode="&#xe922;" glyph-name="copy" horiz-adv-x="829" d="M630.286 749.812h-276.142c-21.498 0-38.924-17.426-38.924-38.924s17.426-38.924 38.924-38.924h276.142c21.498 0 38.924 17.426 38.924 38.924s-17.427 38.924-38.924 38.924zM630.286 594.119h-276.142c-21.498 0-38.924-17.426-38.924-38.924s17.426-38.924 38.924-38.924h276.142c21.496 0 38.924 17.426 38.924 38.924s-17.426 38.924-38.924 38.924zM472.861 438.424h-118.717c-21.498 0-38.924-17.426-38.924-38.924s17.426-38.924 38.924-38.924h118.717c21.498 0 38.924 17.426 38.924 38.924s-17.426 38.924-38.924 38.924zM788.143 235.592c21.498 0 38.924 17.426 38.924 38.924v529.789c0 85.851-69.846 155.695-155.695 155.695h-358.098c-85.802 0-155.615-69.766-155.695-155.551-85.849 0-155.695-69.844-155.695-155.695v-529.36c0-85.849 69.844-155.695 155.695-155.695h377.559c85.849 0 155.695 69.844 155.695 155.695v1.183c76.696 9.609 136.234 75.232 136.234 154.483 0 21.498-17.427 38.924-38.926 38.924s-38.924-17.426-38.924-38.924c0-42.915-34.913-77.838-77.828-77.848l-358.098-0.088c-20.809 0-40.356 8.095-55.057 22.796-14.707 14.703-22.808 34.256-22.808 55.051v529.333c0 42.925 34.923 77.848 77.848 77.848h358.1c42.925 0 77.848-34.923 77.848-77.848v-529.791c-0.002-21.496 17.424-38.922 38.922-38.922zM313.274 119.281l299.711 0.074c-0.023-42.905-34.937-77.805-77.848-77.805h-377.557c-42.925 0-77.848 34.923-77.848 77.848v529.36c0 42.925 34.923 77.848 77.848 77.848v-451.631c0-41.594 16.2-80.698 45.614-110.105 29.408-29.403 68.496-45.588 110.079-45.588z" />
<glyph unicode="&#xea0b;" glyph-name="minus1" d="M0 544v-192c0-17.672 14.328-32 32-32h960c17.672 0 32 14.328 32 32v192c0 17.672-14.328 32-32 32h-960c-17.672 0-32-14.328-32-32z" />
<glyph unicode="&#xea10;" glyph-name="checkmark" d="M864 832l-480-480-224 224-160-160 384-384 640 640z" />
<glyph unicode="&#xea3c;" glyph-name="arrow-right2" d="M621.254 82.746l320 320c24.994 24.992 24.994 65.516 0 90.51l-320 320c-24.994 24.992-65.516 24.992-90.51 0-24.994-24.994-24.994-65.516 0-90.51l210.746-210.746h-613.49c-35.346 0-64-28.654-64-64s28.654-64 64-64h613.49l-210.746-210.746c-12.496-12.496-18.744-28.876-18.744-45.254s6.248-32.758 18.744-45.254c24.994-24.994 65.516-24.994 90.51 0z" />
<glyph unicode="&#xea40;" glyph-name="arrow-left2" d="M402.746 82.746l-320 320c-24.994 24.992-24.994 65.516 0 90.51l320 320c24.994 24.992 65.516 24.992 90.51 0 24.994-24.994 24.994-65.516 0-90.51l-210.746-210.746h613.49c35.346 0 64-28.654 64-64s-28.654-64-64-64h-613.49l210.746-210.746c12.496-12.496 18.744-28.876 18.744-45.254s-6.248-32.758-18.744-45.254c-24.994-24.994-65.516-24.994-90.51 0z" />
</font>
</defs>
</svg>
