<?xml version="1.0" encoding="UTF-8"?>
<svg width="101px" height="30px" viewBox="0 0 101 30" version="1.1" xmlns="http://www.w3.org/2000/svg" xmlns:xlink="http://www.w3.org/1999/xlink">
    <title>C9439B88-5FF9-4910-B0BC-54C4DFE97EBC</title>
    <g id="New" stroke="none" stroke-width="1" fill="none" fill-rule="evenodd">
        <g id="Mobile-apps" transform="translate(-314.000000, -355.000000)" fill-rule="nonzero">
            <g id="Download_on_the_App_Store_Badge_US-UK_135x40" transform="translate(314.000000, 355.000000)">
                <path d="M96.9905554,30 L3.52287946,30 C1.5807888,30 0,28.404 0,26.45025 L0,3.5445 C0,1.59 1.5807888,0 3.52287946,0 L96.9905554,0 C98.9319013,0 100.568561,1.59 100.568561,3.5445 L100.568561,26.45025 C100.568561,28.404 98.9319013,30 96.9905554,30 L96.9905554,30 Z" id="Shape" fill="#A6A6A6"></path>
                <path d="M99.8180498,26.3931376 C99.8180498,27.9714981 98.5427061,29.25 96.965269,29.25 L3.60701282,29.25 C2.03031942,29.25 0.750511652,27.9714981 0.750511652,26.3931376 L0.750511652,3.61059202 C0.750511652,2.03297739 2.03031942,0.75 3.60701282,0.75 L96.9645246,0.75 C98.5427061,0.75 99.8180498,2.03297739 99.8180498,3.61059202 L99.8180498,26.3931376 L99.8180498,26.3931376 Z" id="Shape" fill="#000000"></path>
                <g id="Group" transform="translate(9.756651, 4.500000)" fill="#FFFFFF">
                    <path d="M12.881108,10.3519703 C12.8596656,7.93145372 14.832366,6.75386453 14.922572,6.69904054 C13.8053492,5.04455777 12.0736909,4.8185027 11.4651705,4.80047838 C10.0107845,4.64501858 8.60002277,5.68442128 7.85915103,5.68442128 C7.10349141,5.68442128 5.96260809,4.81549865 4.73299758,4.84103311 C3.15069664,4.86581655 1.67043193,5.7963223 0.858578462,7.2412723 C-0.816885991,10.1874983 0.432688115,14.5170912 2.03791023,16.8985551 C2.84089099,18.0648791 3.77918066,19.3671365 5.00731237,19.3213247 C6.20882591,19.2710068 6.65763744,18.5432747 8.10758707,18.5432747 C9.5442276,18.5432747 9.96568158,19.3213247 11.2182132,19.2920351 C12.5077145,19.2710068 13.3195681,18.1204541 14.0944518,16.9436159 C15.02239,15.6068118 15.3950441,14.2902851 15.4098319,14.2226939 C15.3795168,14.2121797 12.905508,13.2531355 12.881108,10.3519703 Z" id="Shape"></path>
                    <path d="M10.5150505,3.23386419 C11.16128,2.41300642 11.603437,1.29624932 11.4806978,0.162969932 C10.5453657,0.205026689 9.375646,0.820106757 8.70205899,1.6229402 C8.10610824,2.33039493 7.57374533,3.4899598 7.71127243,4.58043142 C8.76194982,4.66003885 9.84072414,4.04195473 10.5150505,3.23386419 Z" id="Shape"></path>
                </g>
                <g id="Group" transform="translate(31.521489, 13.500000)" fill="#FFFFFF">
                    <path d="M8.70819829,10.391328 L7.00993133,10.391328 L6.07966095,7.3833525 L2.84614878,7.3833525 L1.95999894,10.391328 L0.306600368,10.391328 L3.51020031,0.150822 L5.48889441,0.150822 L8.70819829,10.391328 Z M5.79923377,6.1213725 L4.9579523,3.44736 C4.86896341,3.1741875 4.70220272,2.5308855 4.45617462,1.5182235 L4.42626239,1.5182235 C4.32829983,1.9537605 4.17051281,2.5970625 3.95364914,3.44736 L3.12732376,6.1213725 L5.79923377,6.1213725 L5.79923377,6.1213725 Z" id="Shape"></path>
                    <path d="M16.9467745,6.608466 C16.9467745,7.86429 16.6169922,8.856945 15.9574275,9.5856615 C15.3666609,10.23435 14.6330634,10.5583095 13.7573829,10.5583095 C12.8121564,10.5583095 12.1331487,10.2089565 11.7196121,9.5102505 L11.6896999,9.5102505 L11.6896999,13.400073 L10.095378,13.400073 L10.095378,5.4380565 C10.095378,4.6485495 10.0751872,3.838266 10.0363013,3.007206 L11.4384372,3.007206 L11.527426,4.1776155 L11.5573383,4.1776155 C12.0890282,3.2957685 12.8959106,2.8556145 13.9787334,2.8556145 C14.8252495,2.8556145 15.531926,3.199581 16.0972672,3.8882835 C16.6641039,4.5777555 16.9467745,5.4842265 16.9467745,6.608466 Z M15.3225404,6.668487 C15.3225404,5.949774 15.1655011,5.357259 14.8499271,4.890942 C14.5051887,4.404618 14.0422969,4.161456 13.4619996,4.161456 C13.0686538,4.161456 12.7112026,4.296888 12.3918895,4.5639045 C12.0718287,4.8332295 11.862443,5.184891 11.7644805,5.620428 C11.7151253,5.823576 11.6904477,5.989788 11.6904477,6.120603 L11.6904477,7.351803 C11.6904477,7.888914 11.8504781,8.3421495 12.170539,8.712279 C12.4905999,9.0824085 12.9063799,9.2670885 13.417879,9.2670885 C14.0183671,9.2670885 14.4857457,9.0285435 14.8200149,8.5529925 C15.1550319,8.076672 15.3225404,7.44876 15.3225404,6.668487 Z" id="Shape"></path>
                    <path d="M25.2003068,6.608466 C25.2003068,7.86429 24.8705245,8.856945 24.210212,9.5856615 C23.6201933,10.23435 22.8865958,10.5583095 22.0109152,10.5583095 C21.0656887,10.5583095 20.3866811,10.2089565 19.9738923,9.5102505 L19.9439801,9.5102505 L19.9439801,13.400073 L18.3496582,13.400073 L18.3496582,5.4380565 C18.3496582,4.6485495 18.3294674,3.838266 18.2905815,3.007206 L19.6927173,3.007206 L19.7817062,4.1776155 L19.8116184,4.1776155 C20.3425605,3.2957685 21.149443,2.8556145 22.2330135,2.8556145 C23.0787819,2.8556145 23.7854583,3.199581 24.3522951,3.8882835 C24.9168885,4.5777555 25.2003068,5.4842265 25.2003068,6.608466 Z M23.5760727,6.668487 C23.5760727,5.949774 23.4182857,5.357259 23.1027116,4.890942 C22.7579732,4.404618 22.296577,4.161456 21.7155319,4.161456 C21.3214383,4.161456 20.964735,4.296888 20.6446741,4.5639045 C20.3246132,4.8332295 20.1159754,5.184891 20.0180128,5.620428 C19.9694054,5.823576 19.9439801,5.989788 19.9439801,6.120603 L19.9439801,7.351803 C19.9439801,7.888914 20.1040105,8.3421495 20.4225758,8.712279 C20.7426366,9.081639 21.1584166,9.2670885 21.6714114,9.2670885 C22.2718994,9.2670885 22.739278,9.0285435 23.0735473,8.5529925 C23.4085642,8.076672 23.5760727,7.44876 23.5760727,6.668487 Z" id="Shape"></path>
                    <path d="M34.4282301,7.519554 C34.4282301,8.390628 34.1343425,9.0993375 33.5443237,9.646452 C32.8959761,10.2443535 31.9933745,10.5429195 30.8335278,10.5429195 C29.7626699,10.5429195 28.9041889,10.3305375 28.2543457,9.905004 L28.6237617,8.5376025 C29.3237079,8.9731395 30.0917045,9.1916775 30.9284991,9.1916775 C31.5289871,9.1916775 31.9963657,9.0516285 32.3321306,8.7730695 C32.6663997,8.4945105 32.8331604,8.1205335 32.8331604,7.6542165 C32.8331604,7.2386865 32.6955642,6.888564 32.4196238,6.6046185 C32.1451791,6.320673 31.6867742,6.0567345 31.0466524,5.812803 C29.304265,5.1441075 28.4338191,4.164534 28.4338191,2.876391 C28.4338191,2.034558 28.7389238,1.3443165 29.3498811,0.8072055 C29.958595,0.269325 30.7707121,0.0007695 31.7862323,0.0007695 C32.6918251,0.0007695 33.4441177,0.163134 34.0446058,0.4870935 L33.6460253,1.8244845 C33.0851709,1.5105285 32.4510316,1.3535505 31.741364,1.3535505 C31.1805097,1.3535505 30.7422955,1.495908 30.428217,1.779084 C30.162746,2.0322495 30.0296366,2.340819 30.0296366,2.7063315 C30.0296366,3.1110885 30.1814412,3.445821 30.4865459,3.70899 C30.7520169,3.952152 31.2343517,4.215321 31.9342979,4.4992665 C32.7905355,4.854006 33.4194401,5.2687665 33.824003,5.7443175 C34.2270704,6.2183295 34.4282301,6.811614 34.4282301,7.519554 Z" id="Shape"></path>
                    <path d="M39.699513,4.238406 L37.9421695,4.238406 L37.9421695,7.8235065 C37.9421695,8.735364 38.2517611,9.190908 38.8724399,9.190908 C39.1573539,9.190908 39.3936605,9.1655145 39.580612,9.1147275 L39.6247325,10.360548 C39.3106541,10.4813595 38.8971175,10.54215 38.3848705,10.54215 C37.755218,10.54215 37.2631618,10.3443885 36.9079541,9.949635 C36.554242,9.554112 36.3762642,8.890803 36.3762642,7.9589385 L36.3762642,4.236867 L35.3293361,4.236867 L35.3293361,3.005667 L36.3762642,3.005667 L36.3762642,1.6536555 L37.9421695,1.1673315 L37.9421695,3.005667 L39.699513,3.005667 L39.699513,4.238406 Z" id="Shape"></path>
                    <path d="M47.6284977,6.6384765 C47.6284977,7.773489 47.3129237,8.7053535 46.6832712,9.43407 C46.0229587,10.1843325 45.1465303,10.5583095 44.0539861,10.5583095 C43.0010755,10.5583095 42.1627853,10.198953 41.5376197,9.48024 C40.912454,8.761527 40.5998712,7.8542865 40.5998712,6.760827 C40.5998712,5.6165805 40.9214277,4.6793295 41.5667841,3.950613 C42.2106448,3.221127 43.0795951,2.856384 44.1721394,2.856384 C45.2250499,2.856384 46.0723139,3.2157405 46.7116878,3.935223 C47.323393,4.6331595 47.6284977,5.534244 47.6284977,6.6384765 Z M45.9743513,6.691572 C45.9743513,6.0105645 45.833016,5.426514 45.5466064,4.9394205 C45.2123373,4.3499835 44.7344893,4.0560345 44.1153062,4.0560345 C43.4744366,4.0560345 42.987615,4.350753 42.6533459,4.9394205 C42.3669363,5.4272835 42.225601,6.020568 42.225601,6.722352 C42.225601,7.4033595 42.3669363,7.98741 42.6533459,8.473734 C42.9980843,9.063171 43.4796713,9.35712 44.1010978,9.35712 C44.7098118,9.35712 45.1876596,9.057015 45.5323981,8.458344 C45.8262858,7.9620165 45.9743513,7.37181 45.9743513,6.691572 Z" id="Shape"></path>
                    <path d="M52.8107917,4.4500185 C52.6530047,4.420008 52.4847484,4.404618 52.3082662,4.404618 C51.7474119,4.404618 51.3136846,4.6223865 51.0085798,5.058693 C50.7431087,5.443443 50.6099993,5.929767 50.6099993,6.5168955 L50.6099993,10.391328 L49.0164252,10.391328 L49.0313813,5.332635 C49.0313813,4.481568 49.0111906,3.7066815 48.9715569,3.0079755 L50.3602322,3.0079755 L50.418561,4.4207775 L50.4626816,4.4207775 C50.6309379,3.935223 50.896409,3.544317 51.2598426,3.2511375 C51.6150503,2.987199 51.9986747,2.8556145 52.4122113,2.8556145 C52.559529,2.8556145 52.6926384,2.8663875 52.8107917,2.885625 L52.8107917,4.4500185 Z" id="Shape"></path>
                    <path d="M59.9411197,6.349914 C59.9411197,6.643863 59.9224247,6.891642 59.8827908,7.0940205 L55.0998254,7.0940205 C55.1185205,7.8235065 55.3495925,8.381394 55.7937891,8.766144 C56.1968561,9.1101105 56.7180768,9.2824785 57.3581987,9.2824785 C58.0663708,9.2824785 58.712475,9.166284 59.2935198,8.9331255 L59.5432869,10.0719855 C58.8642792,10.3767075 58.0626318,10.528299 57.1375961,10.528299 C56.0248612,10.528299 55.151424,10.191258 54.5157887,9.5179455 C53.8816496,8.844633 53.5638323,7.9404705 53.5638323,6.8062275 C53.5638323,5.692761 53.8592156,4.7655135 54.4507298,4.026024 C55.0699128,3.236517 55.9067075,2.8417635 56.9596183,2.8417635 C57.9938334,2.8417635 58.7767863,3.236517 59.3084759,4.026024 C59.7294908,4.6531665 59.9411197,5.4288225 59.9411197,6.349914 Z M58.4208307,5.9243805 C58.4313002,5.4380565 58.327355,5.0179095 58.111239,4.66317 C57.8352988,4.2068565 57.4112929,3.9790845 56.840717,3.9790845 C56.3194964,3.9790845 55.8954905,4.20147 55.5716908,4.64778 C55.3062196,5.0025195 55.1484325,5.428053 55.0998254,5.923611 L58.4208307,5.923611 L58.4208307,5.9243805 Z" id="Shape"></path>
                </g>
                <g id="Group" transform="translate(32.272001, 4.500000)" fill="#FFFFFF">
                    <path d="M4.49059895,3.11608636 C4.49059895,4.03093636 4.22858549,4.7196 3.70530082,5.18207727 C3.22061303,5.6088 2.53180711,5.82255 1.6396253,5.82255 C1.19724564,5.82255 0.81869928,5.80234091 0.501759486,5.76192273 L0.501759486,0.763281818 C0.915191487,0.693327273 1.36054015,0.657572727 1.84151669,0.657572727 C2.69139038,0.657572727 3.3319502,0.851113636 3.76393839,1.23819545 C4.24788393,1.6758 4.49059895,2.30150455 4.49059895,3.11608636 Z M3.67041518,3.13862727 C3.67041518,2.54556818 3.52048113,2.09086364 3.22061303,1.77373636 C2.92074494,1.45738636 2.48281876,1.29882273 1.90609225,1.29882273 C1.66115049,1.29882273 1.45257887,1.31592273 1.27963514,1.35167727 L1.27963514,5.15176364 C1.3753851,5.16730909 1.55055557,5.17430455 1.80514655,5.17430455 C2.40042926,5.17430455 2.85988062,5.00097273 3.18350064,4.65430909 C3.50712067,4.30764545 3.67041518,3.80241818 3.67041518,3.13862727 Z" id="Shape"></path>
                    <path d="M8.83942857,3.91512273 C8.83942857,4.47864545 8.6857833,4.94034545 8.37849271,5.30255455 C8.05635719,5.67486818 7.62956471,5.86063636 7.09663083,5.86063636 C6.58299539,5.86063636 6.17401686,5.68264091 5.86895306,5.32509545 C5.56463144,4.96832727 5.41247066,4.51828636 5.41247066,3.97575 C5.41247066,3.40834091 5.56908496,2.94275455 5.88379799,2.58132273 C6.19851107,2.21989091 6.62159228,2.03878636 7.15452616,2.03878636 C7.6681616,2.03878636 8.08085134,2.21678182 8.39333769,2.57355 C8.69023677,2.92021364 8.83942857,3.36792273 8.83942857,3.91512273 Z M8.03260528,3.94155 C8.03260528,3.60343636 7.96283399,3.31351364 7.82403365,3.07178182 C7.66073916,2.77952727 7.42841557,2.6334 7.12632074,2.6334 C6.81383444,2.6334 6.57631514,2.77952727 6.41302065,3.07178182 C6.27347807,3.31351364 6.20444902,3.6081 6.20444902,3.95631818 C6.20444902,4.29443182 6.27422031,4.58435455 6.41302065,4.82608636 C6.5815109,5.11834091 6.81606117,5.26446818 7.11889825,5.26446818 C7.41579737,5.26446818 7.64886315,5.11600909 7.81661116,4.81831364 C7.96060721,4.57191818 8.03260528,4.27966364 8.03260528,3.94155 Z" id="Shape"></path>
                    <path d="M14.670527,2.11340455 L13.5757115,5.77746818 L12.8631537,5.77746818 L12.4096403,4.18639091 C12.2945919,3.78920455 12.2010687,3.39435 12.1283284,3.00260455 L12.1142257,3.00260455 C12.0466811,3.40523182 11.9531579,3.79930909 11.8329138,4.18639091 L11.351195,5.77746818 L10.6304724,5.77746818 L9.60097477,2.11340455 L10.4003756,2.11340455 L10.7959937,3.85527273 C10.8917436,4.26722727 10.9704219,4.65975 11.033513,5.03128636 L11.0476157,5.03128636 C11.105511,4.72504091 11.201261,4.33485 11.33635,3.86304545 L11.8329138,2.11418182 L12.4667934,2.11418182 L12.9425742,3.82573636 C13.0576226,4.24313182 13.1511458,4.64498182 13.2231439,5.03206364 L13.244669,5.03206364 C13.2973686,4.65508636 13.3767891,4.25323636 13.4821883,3.82573636 L13.906754,2.11418182 L14.670527,2.11418182 L14.670527,2.11340455 Z" id="Shape"></path>
                    <path d="M18.7031591,5.77746818 L17.9252834,5.77746818 L17.9252834,3.67883182 C17.9252834,3.03214091 17.6907331,2.70879545 17.2201481,2.70879545 C16.989309,2.70879545 16.8030048,2.79740455 16.6582665,2.9754 C16.5150127,3.15339545 16.4422724,3.36325909 16.4422724,3.60343636 L16.4422724,5.77669091 L15.6643967,5.77669091 L15.6643967,3.16039091 C15.6643967,2.8386 15.6547475,2.48960455 15.6361913,2.11185 L16.3198015,2.11185 L16.3561716,2.6847 L16.3776968,2.6847 C16.468251,2.50670455 16.6033402,2.3598 16.7807374,2.24243182 C16.9915357,2.10563182 17.2275705,2.03645455 17.4858727,2.03645455 C17.8124618,2.03645455 18.0841244,2.14682727 18.3001185,2.36835 C18.5688122,2.63961818 18.7031591,3.04457727 18.7031591,3.58245 L18.7031591,5.77746818 L18.7031591,5.77746818 Z" id="Shape"></path>
                    <polygon id="Shape" points="20.8482551 5.77746818 20.0711217 5.77746818 20.0711217 0.432163636 20.8482551 0.432163636"></polygon>
                    <path d="M25.4279238,3.91512273 C25.4279238,4.47864545 25.2742785,4.94034545 24.9669879,5.30255455 C24.6448524,5.67486818 24.2173177,5.86063636 23.6851261,5.86063636 C23.1707483,5.86063636 22.7617698,5.68264091 22.4574482,5.32509545 C22.1531267,4.96832727 22.0009659,4.51828636 22.0009659,3.97575 C22.0009659,3.40834091 22.1575801,2.94275455 22.4722932,2.58132273 C22.7870062,2.21989091 23.2100875,2.03878636 23.7422791,2.03878636 C24.2566568,2.03878636 24.6686043,2.21678182 24.9818329,2.57355 C25.278732,2.92021364 25.4279238,3.36792273 25.4279238,3.91512273 Z M24.6203582,3.94155 C24.6203582,3.60343636 24.5505869,3.31351364 24.4117866,3.07178182 C24.2492343,2.77952727 24.0161685,2.6334 23.714816,2.6334 C23.4015874,2.6334 23.1640681,2.77952727 23.0015158,3.07178182 C22.8619733,3.31351364 22.7929442,3.6081 22.7929442,3.95631818 C22.7929442,4.29443182 22.8627155,4.58435455 23.0015158,4.82608636 C23.1700061,5.11834091 23.4045564,5.26446818 23.7073935,5.26446818 C24.0042926,5.26446818 24.2366161,5.11600909 24.4043641,4.81831364 C24.5491024,4.57191818 24.6203582,4.27966364 24.6203582,3.94155 Z" id="Shape"></path>
                    <path d="M29.1926044,5.77746818 L28.4941493,5.77746818 L28.436254,5.35540909 L28.4147288,5.35540909 C28.175725,5.69196818 27.8350333,5.86063636 27.3926536,5.86063636 C27.0623534,5.86063636 26.7951441,5.74948636 26.593995,5.52874091 C26.4114021,5.32820455 26.3201056,5.0787 26.3201056,4.78255909 C26.3201056,4.33485 26.498245,3.99362727 26.8567507,3.75733636 C27.2145141,3.52104545 27.7177581,3.40523182 28.3657404,3.41067273 L28.3657404,3.34227273 C28.3657404,2.85958636 28.1237677,2.61863182 27.6390798,2.61863182 C27.2939347,2.61863182 26.989613,2.70957273 26.7268573,2.8899 L26.5687586,2.35513636 C26.8938631,2.14449545 27.2954191,2.03878636 27.7689732,2.03878636 C28.6834225,2.03878636 29.1421316,2.54401364 29.1421316,3.55446818 L29.1421316,4.90381364 C29.1421316,5.26990909 29.1592033,5.56138636 29.1926044,5.77746818 Z M28.3850389,4.51828636 L28.3850389,3.95320909 C27.5270004,3.93766364 27.0979812,4.18405909 27.0979812,4.69161818 C27.0979812,4.88282727 27.1469696,5.02584545 27.247173,5.12145 C27.3473765,5.21705455 27.4750431,5.26446818 27.6272039,5.26446818 C27.7979209,5.26446818 27.9575041,5.20772727 28.1029847,5.09502273 C28.2492075,4.98154091 28.3390195,4.83774545 28.3724206,4.66130455 C28.3805854,4.62166364 28.3850389,4.57347273 28.3850389,4.51828636 Z" id="Shape"></path>
                    <path d="M33.6126898,5.77746818 L32.9223994,5.77746818 L32.8860293,5.18907273 L32.8645041,5.18907273 C32.6440565,5.63678182 32.2684791,5.86063636 31.740741,5.86063636 C31.3191443,5.86063636 30.9680611,5.68730455 30.6897182,5.34064091 C30.4113752,4.99397727 30.2725749,4.54393636 30.2725749,3.99129545 C30.2725749,3.39823636 30.4232512,2.91788182 30.7260883,2.55100909 C31.0192762,2.20900909 31.378524,2.03800909 31.8060588,2.03800909 C32.2759016,2.03800909 32.6047174,2.20356818 32.7917638,2.53546364 L32.8066088,2.53546364 L32.8066088,0.432163636 L33.5852267,0.432163636 L33.5852267,4.79033182 C33.5852267,5.1471 33.5941337,5.47588636 33.6126898,5.77746818 Z M32.8066088,4.23225 L32.8066088,3.62131364 C32.8066088,3.51560455 32.7991863,3.43010455 32.7850836,3.36481364 C32.7412909,3.16894091 32.6470255,3.00415909 32.5037717,2.87124545 C32.3590333,2.73833182 32.1846051,2.67148636 31.983456,2.67148636 C31.6932371,2.67148636 31.4661093,2.79196364 31.2991036,3.03369545 C31.1335823,3.27542727 31.0497083,3.58400455 31.0497083,3.96098182 C31.0497083,4.32319091 31.1291288,4.617 31.2887121,4.84318636 C31.4572023,5.08414091 31.6843301,5.20461818 31.968611,5.20461818 C32.2239443,5.20461818 32.4280624,5.10435 32.5831922,4.90303636 C32.7331263,4.71726818 32.8066088,4.49341364 32.8066088,4.23225 Z" id="Shape"></path>
                    <path d="M40.2654565,3.91512273 C40.2654565,4.47864545 40.1118112,4.94034545 39.8045206,5.30255455 C39.4823851,5.67486818 39.0563349,5.86063636 38.5226587,5.86063636 C38.0097655,5.86063636 37.600787,5.68264091 37.294981,5.32509545 C36.9906594,4.96832727 36.8384986,4.51828636 36.8384986,3.97575 C36.8384986,3.40834091 36.9951129,2.94275455 37.3098259,2.58132273 C37.624539,2.21989091 38.0476202,2.03878636 38.5812963,2.03878636 C39.0941895,2.03878636 39.5076216,2.21678182 39.8193656,2.57355 C40.1162647,2.92021364 40.2654565,3.36792273 40.2654565,3.91512273 Z M39.4593754,3.94155 C39.4593754,3.60343636 39.3896042,3.31351364 39.2508038,3.07178182 C39.0867671,2.77952727 38.8551858,2.6334 38.5523487,2.6334 C38.2406046,2.6334 38.0030854,2.77952727 37.8390486,3.07178182 C37.699506,3.31351364 37.6304769,3.6081 37.6304769,3.95631818 C37.6304769,4.29443182 37.7002482,4.58435455 37.8390486,4.82608636 C38.0075388,5.11834091 38.2420891,5.26446818 38.5449262,5.26446818 C38.8418253,5.26446818 39.0756334,5.11600909 39.2433813,4.81831364 C39.3866352,4.57191818 39.4593754,4.27966364 39.4593754,3.94155 Z" id="Shape"></path>
                    <path d="M44.4480226,5.77746818 L43.6708892,5.77746818 L43.6708892,3.67883182 C43.6708892,3.03214091 43.4363389,2.70879545 42.9650116,2.70879545 C42.7341726,2.70879545 42.5478684,2.79740455 42.4038723,2.9754 C42.2598762,3.15339545 42.1878782,3.36325909 42.1878782,3.60343636 L42.1878782,5.77669091 L41.4092603,5.77669091 L41.4092603,3.16039091 C41.4092603,2.8386 41.4003534,2.48960455 41.3817971,2.11185 L42.0646651,2.11185 L42.1010352,2.6847 L42.1225604,2.6847 C42.2138569,2.50670455 42.348946,2.3598 42.5256009,2.24243182 C42.7371415,2.10563182 42.9724341,2.03645455 43.2314785,2.03645455 C43.5573253,2.03645455 43.828988,2.14682727 44.0449821,2.36835 C44.314418,2.63961818 44.4480226,3.04457727 44.4480226,3.58245 L44.4480226,5.77746818 L44.4480226,5.77746818 Z" id="Shape"></path>
                    <path d="M49.6830961,2.72356364 L48.8265422,2.72356364 L48.8265422,4.50351818 C48.8265422,4.95589091 48.978703,5.18207727 49.2800556,5.18207727 C49.4195981,5.18207727 49.5353888,5.16964091 49.6266853,5.14399091 L49.646726,5.76192273 C49.4930807,5.82255 49.2911893,5.85286364 49.0425363,5.85286364 C48.7352457,5.85286364 48.4962419,5.75492727 48.3232982,5.55905455 C48.1496122,5.36318182 48.0635115,5.03361818 48.0635115,4.57114091 L48.0635115,2.72356364 L47.5521028,2.72356364 L47.5521028,2.11340455 L48.0635115,2.11340455 L48.0635115,1.44184091 L48.8257999,1.20088636 L48.8257999,2.11262727 L49.6823538,2.11262727 L49.6823538,2.72356364 L49.6830961,2.72356364 Z" id="Shape"></path>
                    <path d="M53.8010869,5.77746818 L53.0224687,5.77746818 L53.0224687,3.69437727 C53.0224687,3.03758182 52.7879183,2.70879545 52.3180756,2.70879545 C51.9573432,2.70879545 51.710917,2.89922727 51.5758279,3.28009091 C51.5528182,3.36015 51.5394577,3.45808636 51.5394577,3.57312273 L51.5394577,5.77669091 L50.7623243,5.77669091 L50.7623243,0.432163636 L51.5394577,0.432163636 L51.5394577,2.64039545 L51.5543027,2.64039545 C51.7992444,2.23854545 52.1503276,2.03800909 52.6053255,2.03800909 C52.9274611,2.03800909 53.1939279,2.14838182 53.4054684,2.36990455 C53.6689666,2.64583636 53.8010869,3.05623636 53.8010869,3.59877273 L53.8010869,5.77746818 L53.8010869,5.77746818 Z" id="Shape"></path>
                    <path d="M58.0489705,3.77210455 C58.0489705,3.91823182 58.0385789,4.04104091 58.0200228,4.14130909 L55.6871384,4.14130909 C55.6975295,4.50351818 55.8088671,4.77945 56.0248609,4.97065909 C56.2222986,5.14165909 56.4768897,5.22715909 56.7886337,5.22715909 C57.1337792,5.22715909 57.4484924,5.16964091 57.7320307,5.05382727 L57.8537595,5.61968182 C57.5219748,5.77047273 57.1315526,5.84586818 56.6795232,5.84586818 C56.1376826,5.84586818 55.7108903,5.67875455 55.4021149,5.34452727 C55.0918555,5.0103 54.9382104,4.56181364 54.9382104,3.99906818 C54.9382104,3.44642727 55.0814639,2.98628182 55.3701985,2.61940909 C55.6715509,2.22766364 56.0790451,2.03179091 56.5934226,2.03179091 C57.0966665,2.03179091 57.4789242,2.22766364 57.7372265,2.61940909 C57.9457979,2.93031818 58.0489705,3.31506818 58.0489705,3.77210455 Z M57.306723,3.56146364 C57.3126608,3.31973182 57.2614458,3.11142273 57.1560465,2.93575909 C57.0209575,2.70957273 56.8153548,2.59609091 56.5370118,2.59609091 C56.2831632,2.59609091 56.0760759,2.70646364 55.917977,2.92798636 C55.7888264,3.10442727 55.7123749,3.31506818 55.6871384,3.56146364 L57.306723,3.56146364 Z" id="Shape"></path>
                </g>
            </g>
        </g>
    </g>
</svg>