<?xml version="1.0" encoding="UTF-8"?>
<svg width="102px" height="31px" viewBox="0 0 102 31" version="1.1" xmlns="http://www.w3.org/2000/svg" xmlns:xlink="http://www.w3.org/1999/xlink">
    <title>C2CDC7FB-8D41-4AE0-A27A-9BFF6DCD7033</title>
    <defs>
        <linearGradient x1="60.7707155%" y1="4.9481245%" x2="27.0632094%" y2="71.9074222%" id="linearGradient-1">
            <stop stop-color="#00A0FF" offset="0%"></stop>
            <stop stop-color="#00A1FF" offset="1%"></stop>
            <stop stop-color="#00BEFF" offset="26%"></stop>
            <stop stop-color="#00D2FF" offset="51%"></stop>
            <stop stop-color="#00DFFF" offset="76%"></stop>
            <stop stop-color="#00E3FF" offset="100%"></stop>
        </linearGradient>
        <linearGradient x1="107.684729%" y1="50%" x2="-130.640394%" y2="50%" id="linearGradient-2">
            <stop stop-color="#FFE000" offset="0%"></stop>
            <stop stop-color="#FFBD00" offset="41%"></stop>
            <stop stop-color="#FFA500" offset="78%"></stop>
            <stop stop-color="#FF9C00" offset="100%"></stop>
        </linearGradient>
        <linearGradient x1="86.219293%" y1="30.4447747%" x2="-50.1497903%" y2="138.088999%" id="linearGradient-3">
            <stop stop-color="#FF3A44" offset="0%"></stop>
            <stop stop-color="#C31162" offset="100%"></stop>
        </linearGradient>
        <linearGradient x1="-18.7537448%" y1="-13.3426564%" x2="42.1210306%" y2="34.7305444%" id="linearGradient-4">
            <stop stop-color="#32A071" offset="0%"></stop>
            <stop stop-color="#2DA771" offset="7%"></stop>
            <stop stop-color="#15CF74" offset="48%"></stop>
            <stop stop-color="#06E775" offset="80%"></stop>
            <stop stop-color="#00F076" offset="100%"></stop>
        </linearGradient>
    </defs>
    <g id="New" stroke="none" stroke-width="1" fill="none" fill-rule="evenodd">
        <g id="Mobile-apps" transform="translate(-429.000000, -355.000000)" fill-rule="nonzero">
            <g id="Group-10" transform="translate(314.000000, 355.000000)">
                <g id="Google-Play-Badge-US" transform="translate(115.000000, 0.000000)">
                    <rect id="Background-Black" fill="#000000" x="0" y="0" width="102" height="30.2970297" rx="5"></rect>
                    <path d="M98.2222222,0.605940594 C99.9748058,0.605940594 101.395556,2.03020703 101.395556,3.78712871 L101.395556,26.509901 C101.395556,28.2668227 99.9748058,29.6910891 98.2222222,29.6910891 L3.77777778,29.6910891 C2.02519417,29.6910891 0.604444444,28.2668227 0.604444444,26.509901 L0.604444444,3.78712871 C0.604444444,2.03020703 2.02519417,0.605940594 3.77777778,0.605940594 L98.2222222,0.605940594 L98.2222222,0.605940594 Z M98.2222222,0 L3.77777778,0 C1.69136872,0 0,1.69555528 0,3.78712871 L0,26.509901 C0,28.6014744 1.69136872,30.2970297 3.77777778,30.2970297 L98.2222222,30.2970297 C100.308631,30.2970297 102,28.6014744 102,26.509901 L102,3.78712871 C102,1.69555528 100.308631,0 98.2222222,0 Z" id="Border-Gray" fill="#A6A6A6"></path>
                    <path d="M51.0437108,16.7998068 C49.259794,16.8083251 47.8196564,18.2811168 47.8252303,20.0912476 C47.8308366,21.9013784 49.2800424,23.364983 51.0639768,23.3621611 C52.8479112,23.3593309 54.292606,21.8911417 54.2926257,20.081002 C54.3051595,19.2042464 53.9663887,18.3598875 53.3539063,17.7413196 C52.7414238,17.1227517 51.9077064,16.7829728 51.0437108,16.7998068 L51.0437108,16.7998068 Z M51.0437108,22.0728806 C50.2396442,22.1299388 49.4829176,21.6824673 49.135465,20.9444868 C48.7880125,20.2065063 48.9204542,19.3280124 49.4694448,18.7291789 C50.0184353,18.1303455 50.8723917,17.9328864 51.6228758,18.2312441 C52.3733599,18.5296018 52.8678349,19.2631347 52.8697988,20.081002 C52.8945597,20.5926152 52.7146062,21.0926855 52.3707749,21.4677332 C52.0269435,21.842781 51.5483899,22.0610037 51.0437108,22.0728806 L51.0437108,22.0728806 Z M43.960011,16.7998068 C42.1750856,16.8040683 40.7311279,18.2749911 40.7339221,20.0861369 C40.7367244,21.8972827 42.1852202,23.3636044 43.97015,23.3621882 C45.7550797,23.36077 47.2013123,21.89215 47.2013172,20.081002 C47.213851,19.2042464 46.8750802,18.3598875 46.2625978,17.7413196 C45.6501153,17.1227517 44.8163979,16.7829728 43.9524023,16.7998068 L43.960011,16.7998068 Z M43.960011,22.0728806 C43.1555247,22.1331565 42.3965917,21.6879163 42.0466905,20.9504004 C41.6967894,20.2128844 41.8271575,19.3332458 42.3753572,18.7327731 C42.9235569,18.1323004 43.7779786,17.9332456 44.529411,18.2309427 C45.2808434,18.5286398 45.7763001,19.2624798 45.7784903,20.081002 C45.8032511,20.5926152 45.6232977,21.0926855 45.2794664,21.4677332 C44.935635,21.842781 44.4570814,22.0610037 43.9524023,22.0728806 L43.960011,22.0728806 Z M35.5219626,17.811187 L35.5219626,19.2008697 L38.808921,19.2008697 C38.7573823,19.8554131 38.4892374,20.4730427 38.048051,20.953414 C37.383068,21.6407083 36.4628112,22.0108529 35.5143539,21.9725146 C33.4973127,21.9725146 31.8621778,20.3133622 31.8621778,18.2666941 C31.8621778,16.2200259 33.4973127,14.5608735 35.5143539,14.5608735 C36.4409381,14.5455398 37.3356955,14.9037022 38.0023988,15.5568128 L38.9687037,14.5763145 C38.0594029,13.6420293 36.8159882,13.121204 35.5219626,13.1325885 C33.6798664,13.0598456 31.9461729,14.0155557 31.0038054,15.6232528 C30.0614378,17.2309499 30.0614378,19.2329541 31.0038054,20.8406512 C31.9461729,22.4483483 33.6798664,23.4040584 35.5219626,23.3313155 C36.8396106,23.3917314 38.1186146,22.8709261 39.0295733,21.9030305 C39.8267184,21.014345 40.2523242,19.8461157 40.2165305,18.6449966 C40.2189857,18.3523821 40.1935045,18.0602141 40.1404435,17.7725847 L35.5219626,17.811187 Z M69.9969828,18.8920513 C69.5907388,17.6793293 68.4888835,16.8469425 67.2274159,16.7998009 C66.3861703,16.7981378 65.5817645,17.1498582 65.0052033,17.7714525 C64.4286422,18.3930468 64.1313563,19.2290672 64.1839359,20.081002 C64.1652497,20.9528705 64.4967786,21.7949659 65.1023457,22.413796 C65.7079128,23.0326262 66.535449,23.3749814 67.3948073,23.3621973 C68.4758959,23.3681104 69.4876894,22.8228811 70.0882872,21.9107509 L68.9850257,21.138705 C68.6500496,21.7053421 68.0460027,22.0513922 67.3948073,22.0497192 C66.7203656,22.0758029 66.0987728,21.6808355 65.8274151,21.0537799 L70.1567655,19.239472 L69.9969828,18.8920513 Z M65.5839367,19.9883565 C65.5527806,19.5059546 65.7142933,19.0311315 66.0320638,18.6709305 C66.3498343,18.3107295 66.7971137,18.095471 67.2730681,18.0736826 C67.7747629,18.0401384 68.2477932,18.3135438 68.4752428,18.7685239 L65.5839367,19.9883565 Z M62.0687173,23.1691858 L63.4915442,23.1691858 L63.4915442,13.5186115 L62.0687173,13.5186115 L62.0687173,23.1691858 Z M59.740455,17.5332504 L59.6871941,17.5332504 C59.2534694,17.0412076 58.6334327,16.7603397 57.9828453,16.7612025 C56.2557821,16.8461849 54.8985348,18.2917698 54.8985348,20.04626 C54.8985348,21.8007501 56.2557821,23.2463351 57.9828453,23.3313155 C58.6355416,23.3424513 59.2595973,23.0597628 59.6871941,22.5592695 L59.7328463,22.5592695 L59.7328463,23.0302175 C59.7328463,24.2886524 59.0708894,24.9603324 58.0056714,24.9603324 C57.280032,24.9430983 56.6366594,24.4824618 56.3774096,23.794543 L55.1371915,24.3195343 C55.6147756,25.4983025 56.7496507,26.2649807 58.0056714,26.2574257 C59.6719767,26.2574257 61.0491514,25.2614303 61.0491514,22.8372061 L61.0491514,16.9928183 L59.740455,16.9928183 L59.740455,17.5332504 Z M58.1121932,22.0728806 C57.0948245,21.9819025 56.3145437,21.1173155 56.3145437,20.081002 C56.3145437,19.0446886 57.0948245,18.1801016 58.1121932,18.0891235 C58.6038062,18.1147226 59.0644113,18.340633 59.3895797,18.7156361 C59.714748,19.0906391 59.8769345,19.5829682 59.8393681,20.081002 C59.8813185,20.581326 59.7196509,21.0772742 59.391954,21.4535358 C59.064257,21.8297975 58.5990819,22.0535901 58.1045845,22.0728806 L58.1121932,22.0728806 Z M76.6622041,13.5186115 L73.2611151,13.5186115 L73.2611151,23.1691858 L74.6839421,23.1691858 L74.6839421,19.509688 L76.6698128,19.509688 C77.7751164,19.5902617 78.8321856,19.0375889 79.4090438,18.0775219 C79.9859021,17.117455 79.9859021,15.9108445 79.4090438,14.9507776 C78.8321856,13.9907107 77.7751164,13.4380379 76.6698128,13.5186115 L76.6622041,13.5186115 Z M76.6622041,18.1508872 L74.6763334,18.1508872 L74.6763334,14.8619715 L76.6926389,14.8619715 C77.5940041,14.8619715 78.3247051,15.6034052 78.3247051,16.51801 C78.3247051,17.4326148 77.5940041,18.1740486 76.6926389,18.1740486 L76.6622041,18.1508872 Z M85.4350353,16.7612045 C84.3764465,16.6970003 83.3812089,17.2762271 82.9013382,18.2358122 L84.1643824,18.7685239 C84.4188217,18.2926874 84.9261082,18.0141235 85.4578614,18.0582417 C85.8227199,18.0150029 86.1894027,18.1222984 86.4755466,18.3560276 C86.7616905,18.5897569 86.9433068,18.9303254 86.9796014,19.3012356 L86.9796014,19.4016016 C86.5226172,19.1560903 86.0129863,19.0288001 85.4959049,19.0310196 C84.1339476,19.0310196 82.7567729,19.8030655 82.7567729,21.2004687 C82.7839265,21.8024397 83.0498907,22.3676705 83.4941559,22.7675655 C83.9384211,23.1674604 84.5232073,23.3680128 85.1154699,23.323595 C85.8453186,23.3767759 86.5455776,23.0215036 86.9415579,22.3971399 L86.9872101,22.3971399 L86.9872101,23.1691858 L88.3567762,23.1691858 L88.3567762,19.4556448 C88.3567762,17.7648642 87.0937319,16.7843659 85.4730788,16.7843659 L85.4350353,16.7612045 Z M85.2600352,22.0497192 C84.7959045,22.0497192 84.149165,21.810385 84.149165,21.2313505 C84.149165,20.4593045 84.9556872,20.2045294 85.670905,20.2045294 C86.1228937,20.1932127 86.569592,20.3051944 86.964384,20.5287887 C86.8660006,21.3930285 86.1552168,22.0516806 85.2980787,22.0728806 L85.2600352,22.0497192 Z M93.3480834,16.9928183 L91.7198216,21.1773073 L91.6741694,21.1773073 L89.985038,16.9928183 L88.463298,16.9928183 L90.9969951,22.8449265 L89.5513421,26.0952399 L91.0350386,26.0952399 L94.9306931,16.9928183 L93.3480834,16.9928183 Z M80.5578585,23.1691858 L81.9806855,23.1691858 L81.9806855,13.5186115 L80.5578585,13.5186115 L80.5578585,23.1691858 Z" id="Google-Play" fill="#FFFFFF"></path>
                    <path d="M35.8850887,7.77297872 C35.9109759,8.36918161 35.7066986,8.95063673 35.3199247,9.3816617 C34.8877248,9.86089095 34.2849088,10.121194 33.6621103,10.0975256 C32.7068627,10.0895456 31.8491758,9.47111749 31.4856198,8.52818514 C31.1220639,7.58525279 31.3234884,6.50157419 31.9967603,5.77821182 C32.4342221,5.30149951 33.0370983,5.03943657 33.6621103,5.05430448 C33.9806801,5.05317151 34.2961007,5.12160238 34.5889793,5.25538986 C34.8616554,5.37278636 35.1043968,5.55746558 35.2973182,5.79429865 L34.8979356,6.22059964 C34.5930084,5.83345114 34.1352542,5.62192012 33.6621103,5.64951719 C33.1865054,5.64702684 32.7304784,5.85147741 32.3991842,6.21572465 C32.0678901,6.57997188 31.889928,7.07257214 31.9063341,7.57993676 C31.8962379,8.34662678 32.3192629,9.04451353 32.9785883,9.34889146 C33.6379138,9.6532694 34.404052,9.50436049 34.9205422,8.97144754 C35.1524173,8.7032291 35.2861528,8.35492083 35.2973182,7.99015092 L33.6621103,7.99015092 L33.6621103,7.41102505 L35.8549467,7.41102505 C35.8750463,7.53048112 35.8851335,7.65161135 35.8850887,7.77297872 L35.8850887,7.77297872 Z M39.336357,5.76212499 L37.3017665,5.76212499 L37.3017665,7.29037383 L39.1555045,7.29037383 L39.1555045,7.8694997 L37.3017665,7.8694997 L37.3017665,9.39774853 L39.336357,9.39774853 L39.336357,9.99296123 L36.6989249,9.99296123 L36.6989249,5.16691229 L39.336357,5.16691229 L39.336357,5.76212499 Z M41.8080076,9.99296123 L41.2277725,9.99296123 L41.2277725,5.76212499 L39.9618052,5.76212499 L39.9618052,5.16691229 L43.1041171,5.16691229 L43.1041171,5.76212499 L41.8080076,5.76212499 L41.8080076,9.99296123 Z M45.31956,9.99296123 L45.31956,5.16691229 L45.8997951,5.16691229 L45.8997951,9.99296123 L45.31956,9.99296123 Z M48.476943,9.99296123 L47.8967079,9.99296123 L47.8967079,5.76212499 L46.6307405,5.76212499 L46.6307405,5.16691229 L49.7353748,5.16691229 L49.7353748,5.76212499 L48.476943,5.76212499 L48.476943,9.99296123 Z M55.6206161,9.36557487 C54.7035356,10.3390114 53.2220677,10.3390114 52.3049872,9.36557487 C51.4159985,8.36114046 51.4159985,6.79068965 52.3049872,5.78625524 C52.7435533,5.31470738 53.3403042,5.04950495 53.9628016,5.04950495 C54.5852991,5.04950495 55.18205,5.31470738 55.6206161,5.78625524 C56.5133985,6.78907591 56.5133985,8.3627542 55.6206161,9.36557487 L55.6206161,9.36557487 Z M52.7345119,8.96340413 C53.4137063,9.68535295 54.511897,9.68535295 55.1910914,8.96340413 C55.8581344,8.17850448 55.8581344,6.98136904 55.1910914,6.1964694 C54.511897,5.47452057 53.4137063,5.47452057 52.7345119,6.1964694 C52.0674689,6.98136904 52.0674689,8.17850448 52.7345119,8.96340413 L52.7345119,8.96340413 Z M57.1051136,9.99296123 L57.1051136,5.16691229 L57.8134525,5.16691229 L60.0138244,8.92318705 L60.0138244,5.16691229 L60.5940594,5.16691229 L60.5940594,9.99296123 L59.9912178,9.99296123 L57.6928841,6.05973135 L57.6928841,9.99296123 L57.1051136,9.99296123 Z" id="GET-IT-ON" stroke="#FFFFFF" stroke-width="0.2" fill="#FFFFFF"></path>
                    <g id="Icon" transform="translate(7.069307, 5.049505)">
                        <path d="M1.10523564,0.419497334 C0.85507243,0.723328638 0.72880593,1.11228547 0.752174257,1.50708302 L0.752174257,18.6909368 C0.72880593,19.0857343 0.85507243,19.4746912 1.10523564,19.7785225 L1.15896238,19.8329018 L10.6685941,10.2155369 L10.6685941,9.99025133 L1.15896238,0.36511805 L1.10523564,0.419497334 Z" id="Shape" fill="url(#linearGradient-1)"></path>
                        <path d="M13.8154455,13.4239147 L10.6685941,10.2155369 L10.6685941,9.99025133 L13.8154455,6.7741051 L13.8845228,6.81294745 L17.6530693,8.98035034 C18.727604,9.59405941 18.727604,10.6039604 17.6530693,11.2254379 L13.8998733,13.3850724 L13.8154455,13.4239147 Z" id="Shape" fill="url(#linearGradient-2)"></path>
                        <path d="M13.9075485,13.3773039 L10.6685941,10.0990099 L1.10523564,19.7785225 C1.55709107,20.1805581 2.22768607,20.2001372 2.70168713,19.8251333 L13.9152238,13.3773039" id="Shape" fill="url(#linearGradient-3)"></path>
                        <path d="M13.9075485,6.82071592 L2.69401188,0.372886519 C2.22001082,-0.00211738102 1.54941583,0.0174616539 1.0975604,0.419497334 L10.6685941,10.0990099 L13.9075485,6.82071592 Z" id="Shape" fill="url(#linearGradient-4)"></path>
                        <path d="M13.8154455,13.3073877 L2.69401188,19.7163747 C2.23889928,20.0607793 1.61407498,20.0607793 1.15896238,19.7163747 L1.10523564,19.770754 L1.15896238,19.8251333 C1.61321867,20.1721347 2.23975559,20.1721347 2.69401188,19.8251333 L13.9075485,13.3773039 L13.8154455,13.3073877 Z" id="Shape" fill="#000000" opacity="0.2"></path>
                        <path d="M1.10523564,19.6697639 C0.85507243,19.3659326 0.72880593,18.9769758 0.752174257,18.5821782 L0.752174257,18.6987053 C0.72880593,19.0935028 0.85507243,19.4824596 1.10523564,19.7862909 L1.15896238,19.7319117 L1.10523564,19.6697639 Z M17.6530693,11.1089109 L13.8154455,13.3073877 L13.8845228,13.3773039 L17.6530693,11.2176695 C18.0883097,11.0107277 18.3810423,10.5840729 18.4205941,10.0990099 C18.3331189,10.5378025 18.0496539,10.9107827 17.6530693,11.1089109 Z" id="Shape" fill="#000000" opacity="0.12"></path>
                        <path d="M2.69401188,0.481645088 L17.6530693,9.08910891 C18.0496539,9.28723708 18.3331189,9.66021728 18.4205941,10.0990099 C18.3810423,9.61394695 18.0883097,9.18729211 17.6530693,8.98035034 L2.69401188,0.372886519 C1.61947723,-0.240822544 0.74449901,0.27189642 0.74449901,1.51485149 L0.74449901,1.63137852 C0.767524752,0.380654989 1.62715248,-0.132063976 2.69401188,0.481645088 L2.69401188,0.481645088 Z" id="Shape" fill="#FFFFFF" opacity="0.25"></path>
                    </g>
                </g>
            </g>
        </g>
    </g>
</svg>