<?xml version="1.0" encoding="iso-8859-1"?>
<!-- Generator: Adobe Illustrator 19.0.0, SVG Export Plug-In . SVG Version: 6.00 Build 0)  -->
<svg version="1.1" id="Capa_1" xmlns="http://www.w3.org/2000/svg" xmlns:xlink="http://www.w3.org/1999/xlink" x="0px" y="0px"
	 viewBox="0 0 322.558 322.558" style="enable-background:new 0 0 322.558 322.558;" xml:space="preserve">
<g>
	<g>
		<g>
			<path d="M321.6,180.601c-0.8-1.6-2.8-2.4-4.4-2.8c-9.2,0-88.4-3.2-88.4-95.2c0-2.8-2.4-5.2-5.2-5.2c-2.8,0-5.2,2.4-5.2,5.2
				c0,92-79.2,95.2-88,95.2c-1.2,0-2.4,0.4-3.2,1.2c-0.8,0.4-1.2,1.2-1.6,1.6c-0.8,1.6-0.8,3.6,0,5.2c0.8,1.6,2.8,2.8,4.8,2.8
				c0,0,0,0,0.4,0c9.2,0,88,3.2,88,95.2c0,2.8,2.4,5.2,5.2,5.2c2.8,0,5.2-2.4,5.2-5.2c0-91.6,78.8-95.2,88-95.2c2,0,3.6-1.2,4.8-2.8
				C322.8,184.201,322.8,182.201,321.6,180.601z M223.6,244.601c-11.6-38-40-54.4-62.4-61.6c22.4-7.2,50.8-23.6,62.4-61.6
				c11.6,38,40,54.4,62.4,61.6C263.6,190.201,235.2,206.601,223.6,244.601z"/>
			<path d="M157.6,76.601c2.8,0,5.2-2.4,5.2-5.6c0-2.8-2.4-5.2-5.2-5.2c-4.8,0-48-1.6-48-52c0-2.8-2.4-5.2-5.2-5.2
				c-2.8,0-5.2,2.4-5.2,5.2c0,50.4-43.2,52-48,52c-0.4,0-0.4,0-0.4,0c-2.8,0.4-4.8,2.4-4.8,5.2s2.4,5.2,5.2,5.2c5.2,0,48,1.6,48,52
				c0,2.8,2.4,5.2,5.2,5.2c2.4,0.4,4.8-2,4.8-4.8c0-50.4,43.2-52,48-52H157.6z M104,99.401c-6.4-15.2-18-23.6-28.8-28.4
				c11.6-4.8,22.4-14,28.8-28.4c6.4,15.2,18,23.6,28.8,28.4C121.2,75.801,110.4,85.001,104,99.401z"/>
			<path d="M111.6,246.201c-4.8,0-48-1.6-48-52c0-2.8-2.4-5.2-5.2-5.2c-2.8,0-5.2,2.4-5.2,5.2c0,50.4-43.2,52-48,52
				c-0.4,0-0.4,0-0.4,0c-2.8,0.4-4.8,2.4-4.8,5.2c0,2.8,2.4,5.2,5.2,5.2c5.2,0,48,1.6,48,52c0,2.8,2.4,5.2,5.2,5.2
				c2.4,0.8,4.8-1.6,4.8-4.8c0-50.4,43.2-52,48-52h0.4c2.8,0,5.2-2.4,5.2-5.6C116.8,248.601,114.4,246.201,111.6,246.201z
				 M58,280.201c-6.8-15.2-18-23.6-28.8-28.4c11.6-4.8,22.4-14,28.8-28.4c6.4,15.2,18,23.6,28.8,28.4
				C75.2,256.601,64.4,265.801,58,280.201z"/>
		</g>
	</g>
</g>
<g>
</g>
<g>
</g>
<g>
</g>
<g>
</g>
<g>
</g>
<g>
</g>
<g>
</g>
<g>
</g>
<g>
</g>
<g>
</g>
<g>
</g>
<g>
</g>
<g>
</g>
<g>
</g>
<g>
</g>
</svg>
