<?xml version="1.0" encoding="UTF-8"?>
<svg width="24px" height="24px" viewBox="0 0 24 24" version="1.1" xmlns="http://www.w3.org/2000/svg" xmlns:xlink="http://www.w3.org/1999/xlink">
    <title>5335E589-2CAF-4840-A470-AC1090FA0D06</title>
    <g id="New" stroke="none" stroke-width="1" fill="none" fill-rule="evenodd" opacity="0.500232515">
        <g id="Mobile---Menu" transform="translate(-16.000000, -437.000000)" fill="#333647" fill-rule="nonzero">
            <g id="025-web-development" transform="translate(16.000000, 437.000000)">
                <path d="M21.890625,-3.55271368e-15 C23.0537344,-3.55271368e-15 24,0.946265625 24,2.109375 L24,2.109375 L24,21.796875 C24,22.9599844 23.0537344,23.90625 21.890625,23.90625 L21.890625,23.90625 L2.109375,23.90625 C0.946265625,23.90625 0,22.9599844 0,21.796875 L0,21.796875 L0,2.109375 C0,0.946265625 0.946265625,-3.55271368e-15 2.109375,-3.55271368e-15 L2.109375,-3.55271368e-15 Z M22.59375,7.03125 L1.40625,7.03125 L1.40625,21.796875 C1.40625,22.1845781 1.72167187,22.5 2.109375,22.5 L2.109375,22.5 L21.890625,22.5 C22.2783281,22.5 22.59375,22.1845781 22.59375,21.796875 L22.59375,21.796875 L22.59375,7.03125 Z M13.4631094,9.56676562 C13.6160625,9.20985937 14.0294531,9.04453125 14.3863594,9.19748437 C14.7432656,9.3504375 14.9086406,9.76378125 14.7556406,10.1207344 L14.7556406,10.1207344 L10.5368906,19.9644844 C10.3839844,20.3212969 9.9706875,20.4867656 9.61364063,20.3337656 C9.25673438,20.1808125 9.09135938,19.7674219 9.24435938,19.4105156 L9.24435938,19.4105156 Z M7.34203125,11.4040781 C7.645125,11.1615 8.08767187,11.210625 8.33029687,11.5138594 C8.572875,11.8171406 8.52375,12.2595938 8.22046875,12.5021719 L8.22046875,12.5021719 L5.3911875,14.765625 L8.22046875,17.029125 C8.52375,17.2716562 8.572875,17.7141563 8.33029687,18.0173906 C8.0878125,18.3205781 7.64526562,18.3697969 7.34203125,18.1271719 L7.34203125,18.1271719 L3.82640625,15.3146719 C3.47465625,15.0333281 3.47489062,14.4976875 3.82640625,14.2165781 L3.82640625,14.2165781 Z M15.6697031,11.5138594 C15.9122344,11.210625 16.3547344,11.1614531 16.6579688,11.4040781 L16.6579688,11.4040781 L20.1735938,14.2165781 C20.5253438,14.4979219 20.5251094,15.0335156 20.1735938,15.314625 L20.1735938,15.314625 L16.6579688,18.127125 C16.3551563,18.3694688 15.9126094,18.3209063 15.6697031,18.0173438 C15.427125,17.7141094 15.47625,17.2716563 15.7795313,17.0290781 L15.7795313,17.0290781 L18.6088125,14.765625 L15.7795313,12.502125 C15.47625,12.2595938 15.427125,11.8170938 15.6697031,11.5138594 Z M21.890625,1.40625 L2.109375,1.40625 C1.72167187,1.40625 1.40625,1.72167187 1.40625,2.109375 L1.40625,2.109375 L1.40625,5.625 L22.59375,5.625 L22.59375,2.109375 C22.59375,1.72167187 22.2783281,1.40625 21.890625,1.40625 L21.890625,1.40625 Z M3.5625,2.8125 C3.95082521,2.8125 4.265625,3.12729979 4.265625,3.515625 C4.265625,3.90395021 3.95082521,4.21875 3.5625,4.21875 C3.17417479,4.21875 2.859375,3.90395021 2.859375,3.515625 C2.859375,3.12729979 3.17417479,2.8125 3.5625,2.8125 Z M6.375,2.8125 C6.76332521,2.8125 7.078125,3.12729979 7.078125,3.515625 C7.078125,3.90395021 6.76332521,4.21875 6.375,4.21875 C5.98667479,4.21875 5.671875,3.90395021 5.671875,3.515625 C5.671875,3.12729979 5.98667479,2.8125 6.375,2.8125 Z M9.1875,2.8125 C9.57582521,2.8125 9.890625,3.12729979 9.890625,3.515625 C9.890625,3.90395021 9.57582521,4.21875 9.1875,4.21875 C8.79917479,4.21875 8.484375,3.90395021 8.484375,3.515625 C8.484375,3.12729979 8.79917479,2.8125 9.1875,2.8125 Z M20.4375,2.8125 C20.8258125,2.8125 21.140625,3.1273125 21.140625,3.515625 C21.140625,3.9039375 20.8258125,4.21875 20.4375,4.21875 L20.4375,4.21875 L16.21875,4.21875 C15.8304375,4.21875 15.515625,3.9039375 15.515625,3.515625 C15.515625,3.1273125 15.8304375,2.8125 16.21875,2.8125 L16.21875,2.8125 Z" id="Combined-Shape"></path>
            </g>
        </g>
    </g>
</svg>