<?xml version="1.0" encoding="UTF-8"?>
<svg width="24px" height="24px" viewBox="0 0 24 24" version="1.1" xmlns="http://www.w3.org/2000/svg" xmlns:xlink="http://www.w3.org/1999/xlink">
    <title>3B0EE3C9-73D7-47E3-999B-A0240BD5BC38</title>
    <g id="New" stroke="none" stroke-width="1" fill="none" fill-rule="evenodd" opacity="0.503836496">
        <g id="Mobile---Menu" transform="translate(-16.000000, -156.000000)" fill="#333647" fill-rule="nonzero">
            <g id="021-house" transform="translate(16.000000, 156.000000)">
                <path d="M23.6726863,10.2596016 L12.77678,0.354257813 L12.6726707,0.259617188 C12.6011394,0.194601563 12.5225769,0.141773438 12.4395613,0.101132813 C12.4358582,0.0993515625 12.4320144,0.0980390625 12.4283113,0.0962578125 C12.1577488,-0.0320859375 11.8422332,-0.0320859375 11.5716238,0.0962578125 C11.5679207,0.0979921875 11.5640769,0.0993046875 11.5603738,0.101132813 C11.4773582,0.141773438 11.3987957,0.194601563 11.3272644,0.259617188 L11.224655,0.352898438 L0.32734253,10.2596016 C-0.0813137203,10.6310859 -0.111454345,11.2635703 0.260076905,11.6722266 C0.63156128,12.0808828 1.26404565,12.1110234 1.6727019,11.7394922 L2.00003003,11.4419297 L2.00003003,22.9995703 C2.00003003,23.5518516 2.44773315,23.9995547 3.0000144,23.9995547 L8.00003003,23.9995547 L16.0000457,23.9995547 L21.0000144,23.9995547 C21.5522957,23.9995547 22,23.5518516 22,22.9995703 L22,11.4419297 L22.3273269,11.7394922 C22.7359832,12.1110234 23.3684207,12.0808828 23.7399519,11.6722266 C24.1114832,11.2635703 24.0813425,10.6311328 23.6726863,10.2596016 Z M9.99999878,21.9995859 L9.99999878,15.9995859 C9.99999878,14.8948828 10.8952644,13.9995703 12.0000144,13.9995703 C13.1047644,13.9995703 14.00003,14.8948359 14.00003,15.9995859 L14.00003,21.9995859 L9.99999878,21.9995859 L9.99999878,21.9995859 Z M20.00003,21.9995859 L16.0000457,21.9995859 L16.0000457,15.9995859 C16.0000457,13.7902734 14.2093269,11.9995547 12.0000144,11.9995547 C9.7907019,11.9995547 8.00003003,13.7902734 8.00003003,15.9995391 L8.00003003,21.9995859 L3.99999878,21.9995859 L3.99999878,9.62392969 L12.0000144,2.35103906 L20.00003,9.62392969 L20.00003,21.9995859 Z" id="Shape"></path>
            </g>
        </g>
    </g>
</svg>