<?xml version="1.0" encoding="UTF-8"?>
<svg width="14px" height="14px" viewBox="0 0 14 14" version="1.1" xmlns="http://www.w3.org/2000/svg" xmlns:xlink="http://www.w3.org/1999/xlink">
    <title>055E676F-330D-4DDD-B4D9-9CFCA6CD0C81</title>
    <g id="New" stroke="none" stroke-width="1" fill="none" fill-rule="evenodd">
        <g id="01-Main" transform="translate(-857.000000, -18.000000)" fill="#FFFFFF" fill-rule="nonzero">
            <g id="Search" transform="translate(560.000000, 9.000000)">
                <g id="046-search" transform="translate(297.000000, 9.000000)">
                    <path d="M5.62866667,11.2524848 C6.87869697,11.2525152 8.0929697,10.8354545 9.07915152,10.0673333 L12.799697,13.7878788 C13.0776364,14.056303 13.5205152,14.0486061 13.7889394,13.7706667 C14.0507879,13.4995455 14.0507879,13.0697273 13.7889394,12.7986364 L10.0683939,9.07809091 C11.9744242,6.62451515 11.5305758,3.09036364 9.077,1.18433333 C6.62342424,-0.72169697 3.08930303,-0.277848485 1.18327273,2.17572727 C-0.722757576,4.62930303 -0.278909091,8.16345455 2.17466667,10.0694848 C3.16245455,10.8368485 4.37781818,11.2531212 5.62866667,11.2524848 Z M2.63924242,2.63815152 C4.29027273,0.987090909 6.96712121,0.987060606 8.61818182,2.63809091 C10.2692424,4.28912121 10.2692727,6.9659697 8.61824242,8.6170303 C6.96721212,10.2680909 4.29036364,10.2681212 2.63930303,8.61709091 C2.63927273,8.61706061 2.63927273,8.61706061 2.63924242,8.6170303 C0.988212121,6.9780303 0.978484848,4.31093939 2.61748485,2.65990909 C2.62472727,2.65263636 2.6319697,2.64539394 2.63924242,2.63815152 Z" id="Shape"></path>
                </g>
            </g>
        </g>
    </g>
</svg>