<?xml version="1.0" encoding="UTF-8"?>
<svg width="16px" height="16px" viewBox="0 0 16 16" version="1.1" xmlns="http://www.w3.org/2000/svg" xmlns:xlink="http://www.w3.org/1999/xlink">
    <title>A1A7C291-A7D2-4C9C-9D69-7E3AD219DC18</title>
    <g id="New" stroke="none" stroke-width="1" fill="none" fill-rule="evenodd">
        <g id="01-Main" transform="translate(-1231.000000, -67.000000)" fill-rule="nonzero">
            <g id="Download" transform="translate(1223.000000, 59.000000)">
                <g id="014-gear" transform="translate(8.000000, 8.000000)">
                    <path d="M8,4.17529297 C5.89111328,4.17529297 4.17529297,5.89111328 4.17529297,8 C4.17529297,10.1088867 5.89111328,11.824707 8,11.824707 C10.1088867,11.824707 11.824707,10.1088867 11.824707,8 C11.824707,5.89111328 10.1088867,4.17529297 8,4.17529297 Z M8,10.8685303 C6.41833497,10.8685303 5.13146972,9.58166503 5.13146972,8 C5.13146972,6.41833497 6.41833497,5.13146972 8,5.13146972 C9.58166503,5.13146972 10.8685303,6.41833497 10.8685303,8 C10.8685303,9.58166503 9.58166503,10.8685303 8,10.8685303 Z" id="Shape" fill="#000000"></path>
                    <path d="M15.6235352,6.17822266 L14.3937988,5.91088869 C14.2868652,5.58349609 14.1544189,5.26416016 13.9980469,4.95654297 L14.678833,3.897583 C14.800415,3.70837403 14.7736816,3.45996094 14.6147461,3.30102537 L12.6989746,1.38525391 C12.5400391,1.22631837 12.291626,1.19958497 12.102417,1.321167 L11.043457,2.00195312 C10.7358398,1.84558106 10.4165039,1.71313475 10.0891113,1.60620119 L9.82177734,0.376464844 C9.77404784,0.156738281 9.57946778,0 9.35461425,0 L6.64538575,0 C6.42053222,0 6.22595216,0.156738281 6.17822266,0.376464844 L5.91088869,1.60620119 C5.58349609,1.71313475 5.26416016,1.84558106 4.95654297,2.00195312 L3.897583,1.321167 C3.70837403,1.19958497 3.45996094,1.22631837 3.30102538,1.38525391 L1.38525391,3.30102537 C1.22631838,3.45996094 1.19958497,3.70837403 1.321167,3.897583 L2.00195313,4.95654297 C1.84558106,5.26416016 1.71313475,5.58349609 1.60620119,5.91088869 L0.376464844,6.17822266 C0.156738281,6.22607422 3.55271368e-15,6.42053222 3.55271368e-15,6.64538575 L3.55271368e-15,9.35461425 C3.55271368e-15,9.57946778 0.156738281,9.77392578 0.376464844,9.82177734 L1.60620119,10.0891113 C1.71313475,10.4165039 1.84558106,10.7358398 2.00195313,11.043457 L1.321167,12.102417 C1.19958497,12.291626 1.22631838,12.5400391 1.38525391,12.6989746 L3.30102538,14.6147461 C3.45996094,14.7736816 3.70837403,14.800415 3.897583,14.678833 L4.95654297,13.9980469 C5.26416016,14.1544189 5.58349609,14.2868652 5.91088869,14.3937988 L6.17822266,15.6235352 C6.22595216,15.8432617 6.42053222,16 6.64538575,16 L9.35461425,16 C9.57946778,16 9.77404784,15.8432617 9.82177734,15.6235352 L10.0891113,14.3937988 C10.4165039,14.2868652 10.7358398,14.1544189 11.043457,13.9980469 L12.102417,14.678833 C12.291626,14.800415 12.5400391,14.7738037 12.6989746,14.6147461 L14.6147461,12.6989746 C14.7736816,12.5400391 14.800415,12.291626 14.678833,12.102417 L13.9980469,11.043457 C14.1544189,10.7358398 14.2868652,10.4165039 14.3937988,10.0891113 L15.6235352,9.82177734 C15.8432617,9.77392578 16,9.57946778 16,9.35461425 L16,6.64538575 C16,6.42053222 15.8432617,6.22607422 15.6235352,6.17822266 Z M15.0438232,8.96923828 L13.9162597,9.21435547 C13.743042,9.25207519 13.6048584,9.38244628 13.557251,9.55310059 C13.4333496,9.99755859 13.2551269,10.4273682 13.0275879,10.8305664 C12.9404297,10.9849853 12.9458008,11.1749268 13.0417481,11.3240967 L13.6661377,12.2952881 L12.2954102,13.6661377 L11.3240967,13.0417481 C11.1749267,12.9458008 10.9849853,12.9404297 10.8306885,13.0275879 C10.4273682,13.2551269 9.99755859,13.4333496 9.55310059,13.557251 C9.38244628,13.6048584 9.25207519,13.743042 9.21435547,13.9162597 L8.96923828,15.0438232 L7.03076172,15.0438232 L6.78564453,13.9162597 C6.74792481,13.743042 6.61755372,13.6048584 6.44689941,13.557251 C6.00244141,13.4333496 5.57263184,13.2551269 5.16943359,13.0275879 C5.01501466,12.9404297 4.82507325,12.9459228 4.67590331,13.0417481 L3.70471191,13.6661377 L2.33398437,12.2952881 L2.95825194,11.3240967 C3.05419922,11.1749268 3.05969237,10.9849853 2.97253419,10.8305664 C2.74499512,10.4273682 2.56677247,9.99755859 2.44274903,9.55310059 C2.39514159,9.38244628 2.25708006,9.25207519 2.08386231,9.21435547 L0.95617675,8.96923828 L0.95617675,7.03076172 L2.08374025,6.78564453 C2.256958,6.74792481 2.39514159,6.61755372 2.44274903,6.44689941 C2.56665037,6.00244141 2.74487306,5.57263184 2.97241212,5.16943359 C3.05957031,5.01501466 3.05419922,4.82507325 2.95825194,4.67590331 L2.33386231,3.70471191 L3.70458984,2.33386231 L4.67590331,2.95825194 C4.82507325,3.05419922 5.01501466,3.05957031 5.16931153,2.97241212 C5.57263184,2.74487306 6.00244141,2.56665038 6.44689941,2.44274903 C6.61755372,2.39514159 6.74792481,2.256958 6.78564453,2.08374025 L7.03076172,0.95617675 L8.96923828,0.95617675 L9.21435547,2.08374025 C9.25207519,2.256958 9.38244628,2.39514159 9.55310059,2.44274903 C9.99755859,2.56665038 10.4273682,2.74487306 10.8305664,2.97241212 C10.9849853,3.05957031 11.1749267,3.05407716 11.3240967,2.95825194 L12.2952881,2.33386231 L13.6660156,3.70471191 L13.0417481,4.67590331 C12.9458008,4.82507325 12.9403076,5.01501466 13.0274658,5.16943359 C13.2551269,5.57263184 13.4332275,6.00244141 13.557251,6.44689941 C13.6048584,6.61755372 13.7429199,6.74792481 13.9161377,6.78564453 L15.0438232,7.03076172 L15.0438232,8.96923828 Z" id="Shape" fill="#333647"></path>
                </g>
            </g>
        </g>
    </g>
</svg>