<?xml version="1.0" encoding="UTF-8"?>
<svg width="12px" height="13px" viewBox="0 0 12 13" version="1.1" xmlns="http://www.w3.org/2000/svg" xmlns:xlink="http://www.w3.org/1999/xlink">
    <title>86B95646-B453-4D5C-857B-2834986B96D3</title>
    <g id="New" stroke="none" stroke-width="1" fill="none" fill-rule="evenodd">
        <g id="01-Main" transform="translate(-1302.000000, -11.000000)" fill-rule="nonzero">
            <g id="Modes" transform="translate(1264.000000, 5.000000)">
                <g id="012-night-mode" transform="translate(38.000000, 6.000000)">
                    <path d="M11.194776,8.230368 C9.227808,9.045192 6.972648,8.111064 6.15792,6.144048 C5.343144,4.177032 6.277224,1.921968 8.24424,1.107192 C8.394744,1.044888 8.547,0.992856 8.700096,0.950688 C7.26192,0.247368 5.540424,0.140856 3.945,0.801648 C0.994488,2.023824 -0.40668,5.406432 0.815472,8.35692 C2.037672,11.307456 5.420304,12.7086 8.370768,11.486424 C9.966216,10.825584 11.108184,9.532992 11.62788,8.018712 C11.489712,8.097192 11.345304,8.168064 11.194776,8.230368 Z" id="Path" fill="#C5E1E6"></path>
                    <path d="M11.857776,7.741512 C11.7426,7.645992 11.580312,7.63164 11.450208,7.705512 C11.323344,7.777512 11.191104,7.842144 11.057088,7.897608 C10.629264,8.074848 10.179768,8.164704 9.72108,8.164704 C8.301768,8.164704 7.033704,7.317432 6.490584,6.006168 C6.133344,5.143656 6.13332,4.193664 6.490584,3.331152 C6.847848,2.468688 7.519584,1.796928 8.382,1.439688 C8.516544,1.384008 8.655792,1.336176 8.795808,1.297608 C8.940096,1.257864 9.044736,1.132992 9.058632,0.983976 C9.072504,0.83496 8.992776,0.69288 8.858328,0.627168 C8.019408,0.21684 7.08456,0 6.154968,0 C5.348424,0 4.558536,0.157776 3.807312,0.468888 C2.291472,1.096824 1.110864,2.277432 0.482976,3.793272 C-0.144936,5.309112 -0.144936,6.97872 0.482976,8.49456 C0.957048,9.639072 1.753272,10.601736 2.78556,11.278512 C3.792888,11.93892 4.95984,12.288 6.160248,12.288 C6.967056,12.288 7.757136,12.130176 8.5086,11.818872 C10.135224,11.145144 11.39628,9.802536 11.96844,8.135424 C12.017016,7.993872 11.972952,7.837032 11.857776,7.741512 Z M8.233056,11.153664 C7.569408,11.428584 6.871992,11.568 6.160248,11.568 C3.958224,11.568 1.990848,10.253448 1.14816,8.219016 C0.59388,6.880872 0.59388,5.406936 1.14816,4.068792 C1.702464,2.7306 2.744664,1.688376 4.082832,1.134096 C4.746264,0.85932 5.44344,0.72 6.154968,0.72 C6.684912,0.72 7.216968,0.79992 7.726896,0.954096 C5.841768,1.963632 4.990128,4.265208 5.8254,6.281664 C6.150744,7.067064 6.697104,7.727664 7.405464,8.192112 C8.096592,8.645208 8.897328,8.88468 9.72108,8.88468 C10.135032,8.88468 10.542576,8.824176 10.93728,8.704392 C10.349424,9.801048 9.397296,10.67148 8.233056,11.153664 Z" id="Shape" fill="#000000"></path>
                </g>
            </g>
        </g>
    </g>
</svg>