<?xml version="1.0" encoding="UTF-8"?>
<svg width="14px" height="14px" viewBox="0 0 14 14" version="1.1" xmlns="http://www.w3.org/2000/svg" xmlns:xlink="http://www.w3.org/1999/xlink">
    <title>ED916B1D-9DC8-4963-8E5E-F76836345909</title>
    <g id="New" stroke="none" stroke-width="1" fill="none" fill-rule="evenodd">
        <g id="01-Main" transform="translate(-1269.000000, -9.000000)" fill-rule="nonzero">
            <g id="Modes" transform="translate(1264.000000, 5.000000)">
                <g id="013-lamp" transform="translate(5.000000, 4.000000)">
                    <path d="M11.0833333,7 C11.0833333,8.26 10.5116667,9.42666667 9.52583333,10.2083333 C9.12333333,10.5233333 8.86083333,10.9375 8.77916667,11.3808333 C8.7675,11.375 8.76166667,11.375 8.75,11.375 L5.25,11.375 C5.23833333,11.375 5.22083333,11.375 5.20916667,11.3808333 C5.1275,10.92 4.88833333,10.5175 4.54416667,10.2608333 C3.2725,9.29833333 2.6775,7.72333333 3.00416667,6.13666667 C3.325,4.59083333 4.57916667,3.33083333 6.125,3.01 C7.35583333,2.7475 8.61583333,3.05083333 9.5725,3.82666667 C10.535,4.60833333 11.0833333,5.76333333 11.0833333,7 L11.0833333,7 Z" id="Path" fill="#FFC107"></path>
                    <path d="M8.77916667,11.3808333 C8.76166667,11.48 8.75,11.5791667 8.75,11.6841667 L8.75,12.9791667 C8.75,13.5391667 8.28916667,14 7.72916667,14 L6.27083333,14 C5.78083333,14 5.25,13.6266667 5.25,12.81 L5.25,11.7775 C5.25,11.6433333 5.23833333,11.5091667 5.20916667,11.3808333 C5.22083333,11.375 5.23833333,11.375 5.25,11.375 L8.75,11.375 C8.76166667,11.375 8.7675,11.375 8.77916667,11.3808333 Z" id="Path" fill="#607D8B"></path>
                    <path d="M7.72916667,14 L6.27083333,14 C5.77908333,14 5.25,13.6266667 5.25,12.8076667 L5.25,11.7786667 C5.25,11.15975 4.98633333,10.5915833 4.54475,10.2590833 C3.27016667,9.2995 2.68041667,7.721 3.00533333,6.13958333 C3.32325,4.59025 4.57683333,3.332 6.12441667,3.00825 C7.35525,2.74925 8.61408333,3.04908333 9.57425,3.82958333 C10.53325,4.60891667 11.0833333,5.7645 11.0833333,7 C11.0833333,8.25883333 10.5145833,9.42725 9.52291667,10.2071667 C9.03175,10.5933333 8.75,11.1311667 8.75,11.6824167 L8.75,12.9791667 C8.75,13.5420833 8.29208333,14 7.72916667,14 L7.72916667,14 Z M6.99183333,3.79283333 C6.76316667,3.79283333 6.53275,3.81675 6.30233333,3.86458333 C5.09133333,4.11775 4.11075,5.10241667 3.86166667,6.31516667 C3.60558333,7.56175 4.06875,8.80541667 5.07033333,9.55966667 C5.73008333,10.0566667 6.12441667,10.8861667 6.12441667,11.7786667 L6.12441667,12.8076667 C6.12441667,12.86075 6.13141667,13.125 6.27025,13.125 L7.72858333,13.125 C7.80908333,13.125 7.87441667,13.0596667 7.87441667,12.9791667 L7.87441667,11.6824167 C7.87441667,10.8605 8.27808333,10.0724167 8.98158333,9.51883333 C9.7615,8.90633333 10.2083333,7.98816667 10.2083333,7 C10.2083333,6.02933333 9.7755,5.12108333 9.02183333,4.50858333 C8.4455,4.04075 7.73091667,3.79283333 6.99183333,3.79283333 Z" id="Shape" fill="#000000"></path>
                </g>
            </g>
        </g>
    </g>
</svg>