<?xml version="1.0" encoding="UTF-8"?>
<svg width="24px" height="24px" viewBox="0 0 24 24" version="1.1" xmlns="http://www.w3.org/2000/svg" xmlns:xlink="http://www.w3.org/1999/xlink">
    <title>BD22FAA3-B033-4178-9014-8713D3069D34</title>
    <g id="New" stroke="none" stroke-width="1" fill="none" fill-rule="evenodd">
        <g id="03-Display-Settings" transform="translate(-1016.000000, -36.000000)" fill="#000000" fill-rule="nonzero">
            <g id="016-cancel" transform="translate(1016.000000, 36.000000)">
                <path d="M20.4902812,3.51276562 C15.8109375,-1.16657812 8.19464062,-1.16657812 3.51529687,3.51276562 C1.24860938,5.78034375 0,8.79454687 0,12.0002344 C0,15.2059219 1.24860938,18.220125 3.51529687,20.4868125 C5.8554375,22.8269531 8.929125,23.9965312 12.0027656,23.9965312 C15.0764062,23.9965312 18.1501406,22.8269531 20.4902344,20.4868125 C25.1695781,15.8074687 25.1695781,8.193 20.4902812,3.51276562 Z M19.175625,19.1721562 C15.2205469,23.1272344 8.78498438,23.1272344 4.82990625,19.1721562 C2.9146875,17.2569375 1.8594375,14.7094687 1.8594375,12.0002344 C1.8594375,9.291 2.9146875,6.74353125 4.82990625,4.827375 C8.78498438,0.872296875 15.2205469,0.873234375 19.175625,4.827375 C23.1297656,8.78245312 23.1297656,15.2180156 19.175625,19.1721562 Z" id="Shape"></path>
                <path d="M16.0089844,14.5700156 L13.3769062,11.9416875 L16.0089844,9.31335938 C16.3715625,8.95078125 16.3715625,8.36226563 16.0099219,7.99870313 C15.6464062,7.63425 15.0578906,7.6351875 14.694375,7.99776563 L12.0604687,10.6279688 L9.4265625,7.99776563 C9.06304687,7.6351875 8.47453125,7.63425 8.11101562,7.99870313 C7.7484375,8.36221875 7.7484375,8.95073437 8.11195312,9.31335938 L10.7440312,11.9416875 L8.11195312,14.5700156 C7.7484375,14.9325938 7.7484375,15.5211094 8.11101562,15.8846719 C8.29232812,16.066875 8.53125,16.1570625 8.76928125,16.1570625 C9.0073125,16.1570625 9.24529687,16.0659375 9.42660937,15.8855625 L12.0605156,13.2553594 L14.6944219,15.8855625 C14.8757344,16.066875 15.1137187,16.1570625 15.35175,16.1570625 C15.5897812,16.1570625 15.8287031,16.0659375 16.0100156,15.8846719 C16.3725,15.5211094 16.3725,14.9325938 16.0089844,14.5700156 Z" id="Path"></path>
            </g>
        </g>
    </g>
</svg>