<?xml version="1.0" encoding="UTF-8"?>
<svg width="24px" height="25px" viewBox="0 0 24 25" version="1.1" xmlns="http://www.w3.org/2000/svg" xmlns:xlink="http://www.w3.org/1999/xlink">
    <title>21DD7E2C-9D8C-4F16-B50A-0D3BF1AA1F72</title>
    <g id="New" stroke="none" stroke-width="1" fill="none" fill-rule="evenodd" opacity="0.499209449">
        <g id="Mobile---Menu" transform="translate(-16.000000, -324.000000)" fill="#333647" fill-rule="nonzero">
            <g id="023-donation" transform="translate(16.000000, 324.000000)">
                <path d="M7.5,2.671875 C7.72112474,2.67247836 7.93077398,2.77038466 8.07318003,2.93955036 C8.21558608,3.10871606 8.27631039,3.33198945 8.2392,3.54997875 C8.16173115,3.91938952 7.83168192,4.1809105 7.45434375,4.171875 L7.45434375,4.171875 L4.60125,4.171875 L1.935,9.796875 L22.065,9.796875 L19.39875,4.171875 L17.25,4.171875 C17.0288707,4.17127934 16.8192142,4.07337634 16.6768022,3.90420963 C16.5343903,3.73504292 16.4736626,3.51176506 16.5107738,3.29377125 C16.5882439,2.92435339 16.9183036,2.66283033 17.2956488,2.671875 L17.2956488,2.671875 L19.875,2.671875 C20.164397,2.67281141 20.4278988,2.83877387 20.55375,3.099375 L20.55375,3.099375 L23.8920787,10.16109 C23.9631425,10.3114152 24,10.4756239 24,10.6419 L24,10.6419 L24,22.921875 C23.9981835,23.5424414 23.4955664,24.0450585 22.875,24.046875 L22.875,24.046875 L1.125,24.046875 C0.504433619,24.0450585 0.00181646626,23.5424414 0,22.921875 L0,22.921875 L0,10.546875 C0.00267814621,10.4357798 0.0268747964,10.3262581 0.07125,10.224375 L0.07125,10.224375 L3.44625,3.099375 C3.57210123,2.83877387 3.83560304,2.67281141 4.125,2.671875 L4.125,2.671875 Z M22.5,11.296875 L1.5,11.296875 L1.5,22.546875 L22.5,22.546875 L22.5,11.296875 Z M20.25,19.546875 C20.6642136,19.546875 21,19.8826614 21,20.296875 C21,20.7110886 20.6642136,21.046875 20.25,21.046875 C19.8357864,21.046875 19.5,20.7110886 19.5,20.296875 C19.5,19.8826614 19.8357864,19.546875 20.25,19.546875 Z M12.0010913,13.2392588 C13.1622486,12.5253844 14.6602197,12.6931929 15.634635,13.6463025 C16.1847451,14.1918603 16.494281,14.9345128 16.494281,15.7092738 C16.494281,16.4840347 16.185021,17.2267434 15.63501,17.7724013 L15.63501,17.7724013 L12.5346675,20.8308113 C12.2364408,21.1189196 11.7635592,21.1189196 11.4653325,20.8308113 L11.4653325,20.8308113 L8.36535,17.7725813 C7.81516791,17.2270017 7.50568897,16.4842692 7.50568897,15.7094419 C7.50568897,14.9346145 7.81516791,14.1918821 8.36535,13.6463025 C9.34051075,12.692899 10.8392374,12.5251072 12.0010913,13.2392588 Z M14.5814213,14.7141863 C14.0127086,14.1575504 13.1033839,14.1575504 12.5346713,14.7141863 C12.2427065,15.0035831 11.7734727,15.0081287 11.4759563,14.7244425 C10.9079913,14.1598718 9.99214798,14.1553062 9.4185825,14.7141863 C9.15244737,14.9770374 9.00268927,15.3355457 9.0027583,15.7096105 C9.00282738,16.0836754 9.15271783,16.4421284 9.41894625,16.7048963 L9.41894625,16.7048963 L12,19.2513413 L14.5814213,16.7047275 C14.8474797,16.4418829 14.9972229,16.0834547 14.9972229,15.7094569 C14.9972229,15.335459 14.8474797,14.9770309 14.5814213,14.7141863 Z M12.9265837,0.0724076772 C13.1853827,0.00234324183 13.461899,0.0757650083 13.651852,0.264983973 C13.841805,0.454202937 13.9162969,0.730432876 13.847235,0.98950125 L13.847235,0.98950125 L13.7510138,1.3519125 L14.8382962,1.640625 C15.2386171,1.74692153 15.4769709,2.15761604 15.3706744,2.55793687 C15.2643778,2.9582577 14.8536833,3.19661151 14.4533625,3.090315 L14.4533625,3.090315 L12.2788088,2.51293125 C12.0198459,2.44416946 11.7438704,2.51878598 11.5548395,2.70867348 C11.3658086,2.89856099 11.2924407,3.17487106 11.3623726,3.43352036 C11.4323046,3.69216966 11.6349122,3.89386321 11.893875,3.962625 L11.893875,3.962625 L12.6187125,4.1550975 C13.6369267,4.42713733 14.3304224,5.36879605 14.2881075,6.421875 L14.2881075,6.421875 L16.875,6.421875 C17.2892136,6.421875 17.625,6.75766144 17.625,7.171875 C17.625,7.58608856 17.2892136,7.921875 16.875,7.921875 L16.875,7.921875 L7.125,7.921875 C6.71078644,7.921875 6.375,7.58608856 6.375,7.171875 C6.375,6.75766144 6.71078644,6.421875 7.125,6.421875 L7.125,6.421875 L12.78225,6.421875 C12.829304,6.05073572 12.5951164,5.70184582 12.2338088,5.60481375 L12.2338088,5.60481375 L11.5089337,5.412375 C10.3784656,5.11293883 9.66622961,3.99696846 9.87072072,2.84553295 C10.0752118,1.69409745 11.1281582,0.891617574 12.2926013,0.99975 L12.2926013,0.99975 L12.3975225,0.6045675 C12.4660744,0.34536372 12.6677846,0.142472113 12.9265837,0.0724076772 Z" id="Combined-Shape"></path>
            </g>
        </g>
    </g>
</svg>