<?xml version="1.0" encoding="UTF-8"?>
<svg width="24px" height="24px" viewBox="0 0 24 24" version="1.1" xmlns="http://www.w3.org/2000/svg" xmlns:xlink="http://www.w3.org/1999/xlink">
    <title>51AB3BE8-BAD5-4093-A8F2-E963D890185E</title>
    <g id="New" stroke="none" stroke-width="1" fill="none" fill-rule="evenodd">
        <g id="Mobile---Menu" transform="translate(-16.000000, -268.000000)" fill="#999AA3" fill-rule="nonzero">
            <g id="026-information" transform="translate(16.000000, 268.000000)">
                <path d="M12,0 C18.6324375,0 24,5.36704687 24,12 C24,18.6324844 18.6329531,24 12,24 C5.36751563,24 0,18.6329531 0,12 C0,5.36751563 5.36704687,0 12,0 Z M12,1.875 C6.40382813,1.875 1.875,6.40345313 1.875,12 C1.875,17.5961719 6.40345313,22.125 12,22.125 C17.596125,22.125 22.125,17.5965469 22.125,12 C22.125,6.40382813 17.5965469,1.875 12,1.875 Z M12,10.0467187 C12.5177812,10.0467187 12.9375,10.4664375 12.9375,10.9842187 L12.9375,10.9842187 L12.9375,17.0213437 C12.9375,17.539125 12.5177812,17.9588906 12,17.9588906 C11.4822188,17.9588906 11.0625,17.5391719 11.0625,17.0213906 L11.0625,17.0213906 L11.0625,10.9842187 C11.0625,10.4664375 11.4822188,10.0467187 12,10.0467187 Z M12,6.3675 C12.6989854,6.3675 13.265625,6.93413961 13.265625,7.633125 C13.265625,8.33211039 12.6989854,8.89875 12,8.89875 C11.3010146,8.89875 10.734375,8.33211039 10.734375,7.633125 C10.734375,6.93413961 11.3010146,6.3675 12,6.3675 Z" id="Combined-Shape"></path>
            </g>
        </g>
    </g>
</svg>