<?xml version="1.0" encoding="UTF-8"?>
<svg width="30px" height="30px" viewBox="0 0 30 30" version="1.1" xmlns="http://www.w3.org/2000/svg" xmlns:xlink="http://www.w3.org/1999/xlink">
    <title>2A77E252-59A8-4C1D-85FB-9929549B1143</title>
    <g id="New" stroke="none" stroke-width="1" fill="none" fill-rule="evenodd">
        <g id="01-Main" transform="translate(-386.000000, -984.000000)" fill="#00ACC2" fill-rule="nonzero">
            <g id="Player" transform="translate(0.000000, 974.000000)">
                <g id="Group-2" transform="translate(342.000000, 10.000000)">
                    <g id="005-movie-player-play-button" transform="translate(44.000000, 0.000000)">
                        <path d="M15,0 C6.71511429,0 0,6.71511429 0,15 C0,23.2848 6.71511429,30 15,30 C23.2848,30 30,23.2848 30,15 C30,6.71511429 23.2848,0 15,0 Z M22.1775429,16.2042857 L13.2301714,22.3596 C12.9812571,22.5300857 12.6915429,22.6172571 12.4010571,22.6172571 C12.1672286,22.6172571 11.9351143,22.5617143 11.7213429,22.4500286 C11.2409143,22.1958857 10.9392,21.6977143 10.9392,21.1554857 L10.9392,8.84468571 C10.9392,8.30245714 11.2409143,7.8042 11.7213429,7.55005714 C12.2017714,7.29805714 12.7822286,7.33277143 13.2301714,7.64048571 L22.1775429,13.7957143 C22.5734571,14.0682857 22.8107143,14.5192286 22.8107143,15 C22.8107143,15.4807714 22.5735429,15.9317143 22.1775429,16.2042857 Z" id="Shape"></path>
                    </g>
                </g>
            </g>
        </g>
    </g>
</svg>