<?xml version="1.0" encoding="UTF-8"?>
<svg width="12px" height="16px" viewBox="0 0 12 16" version="1.1" xmlns="http://www.w3.org/2000/svg" xmlns:xlink="http://www.w3.org/1999/xlink">
    <title>B8DBEC13-1DE0-4BB3-9E13-39E546A8BA25</title>
    <g id="New" stroke="none" stroke-width="1" fill="none" fill-rule="evenodd">
        <g id="Mobile---Menu" transform="translate(-69.000000, -100.000000)" fill-rule="nonzero">
            <g id="Modes" transform="translate(16.000000, 92.000000)">
                <g id="Light" transform="translate(43.000000, 0.000000)">
                    <g id="013-lamp" transform="translate(10.000000, 8.000000)">
                        <path d="M11.7777778,6.33333333 C11.7777778,8.01333333 11.0155556,9.56888889 9.70111111,10.6111111 C9.16444444,11.0311111 8.81444444,11.5833333 8.70555556,12.1744444 C8.69,12.1666667 8.68222222,12.1666667 8.66666667,12.1666667 L4,12.1666667 C3.98444444,12.1666667 3.96111111,12.1666667 3.94555556,12.1744444 C3.83666667,11.56 3.51777778,11.0233333 3.05888889,10.6811111 C1.36333333,9.39777778 0.57,7.29777778 1.00555556,5.18222222 C1.43333333,3.12111111 3.10555556,1.44111111 5.16666667,1.01333333 C6.80777778,0.663333333 8.48777778,1.06777778 9.76333333,2.10222222 C11.0466667,3.14444444 11.7777778,4.68444444 11.7777778,6.33333333 L11.7777778,6.33333333 Z" id="Path" fill="#FFC107"></path>
                        <path d="M8.70555556,12.1744444 C8.68222222,12.3066667 8.66666667,12.4388889 8.66666667,12.5788889 L8.66666667,14.3055556 C8.66666667,15.0522222 8.05222222,15.6666667 7.30555556,15.6666667 L5.36111111,15.6666667 C4.70777778,15.6666667 4,15.1688889 4,14.08 L4,12.7033333 C4,12.5244444 3.98444444,12.3455556 3.94555556,12.1744444 C3.96111111,12.1666667 3.98444444,12.1666667 4,12.1666667 L8.66666667,12.1666667 C8.68222222,12.1666667 8.69,12.1666667 8.70555556,12.1744444 Z" id="Path" fill="#607D8B"></path>
                        <path d="M7.30555556,15.6666667 L5.36111111,15.6666667 C4.70544444,15.6666667 4,15.1688889 4,14.0768889 L4,12.7048889 C4,11.8796667 3.64844444,11.1221111 3.05966667,10.6787778 C1.36022222,9.39933333 0.573888889,7.29466667 1.00711111,5.18611111 C1.431,3.12033333 3.10244444,1.44266667 5.16588889,1.011 C6.807,0.665666667 8.48544444,1.06544444 9.76566667,2.10611111 C11.0443333,3.14522222 11.7777778,4.686 11.7777778,6.33333333 C11.7777778,8.01177778 11.0194444,9.56966667 9.69722222,10.6095556 C9.04233333,11.1244444 8.66666667,11.8415556 8.66666667,12.5765556 L8.66666667,14.3055556 C8.66666667,15.0561111 8.05611111,15.6666667 7.30555556,15.6666667 L7.30555556,15.6666667 Z M6.32244444,2.05711111 C6.01755556,2.05711111 5.71033333,2.089 5.40311111,2.15277778 C3.78844444,2.49033333 2.481,3.80322222 2.14888889,5.42022222 C1.80744444,7.08233333 2.425,8.74055556 3.76044444,9.74622222 C4.64011111,10.4088889 5.16588889,11.5148889 5.16588889,12.7048889 L5.16588889,14.0768889 C5.16588889,14.1476667 5.17522222,14.5 5.36033333,14.5 L7.30477778,14.5 C7.41211111,14.5 7.49922222,14.4128889 7.49922222,14.3055556 L7.49922222,12.5765556 C7.49922222,11.4806667 8.03744444,10.4298889 8.97544444,9.69177778 C10.0153333,8.87511111 10.6111111,7.65088889 10.6111111,6.33333333 C10.6111111,5.03911111 10.034,3.82811111 9.02911111,3.01144444 C8.26066667,2.38766667 7.30788889,2.05711111 6.32244444,2.05711111 Z" id="Shape" fill="#000000"></path>
                    </g>
                </g>
            </g>
        </g>
    </g>
</svg>