<?xml version="1.0" encoding="UTF-8"?>
<svg width="24px" height="24px" viewBox="0 0 24 24" version="1.1" xmlns="http://www.w3.org/2000/svg" xmlns:xlink="http://www.w3.org/1999/xlink">
    <title>D4F7E34C-7052-4BAE-BE5C-075F18AC804F</title>
    <g id="New" stroke="none" stroke-width="1" fill="none" fill-rule="evenodd">
        <g id="Mobile---Menu" transform="translate(-16.000000, -381.000000)" fill="#999BA3" fill-rule="nonzero">
            <g id="024-help" transform="translate(16.000000, 381.000000)">
                <path d="M12,0 C18.6329531,0 24,5.3679375 24,12 C24,18.6329531 18.6320156,24 12,24 L12,24 L0.9375,24 C0.41971875,24 0,23.5802812 0,23.0625 L0,23.0625 L0,12 C0,5.36704687 5.3679375,0 12,0 Z M12,1.875 C6.40345313,1.875 1.875,6.40420312 1.875,12 L1.875,12 L1.875,22.125 L12,22.125 C17.5965469,22.125 22.125,17.5957969 22.125,12 C22.125,6.40345313 17.5957969,1.875 12,1.875 Z M11.6324062,16.0884375 C12.3187031,16.0884375 12.8905312,16.6603125 12.8905312,17.3465625 C12.8905312,18.0165 12.3349687,18.6046875 11.6324062,18.6046875 C10.9298437,18.6046875 10.3906406,18.0164531 10.3906406,17.3465625 C10.3906406,16.6603125 10.9462031,16.0884375 11.6324062,16.0884375 Z M11.8448438,6.56259375 C13.9362656,6.56259375 15.325125,7.72270313 15.325125,9.25860938 C15.325125,10.7945156 13.9362656,11.9055938 13.495125,12.2487188 C12.5964844,12.9512813 12.5800781,13.4414531 12.5800781,14.2911094 C12.5800781,14.6015625 12.4167188,14.961 11.6160938,14.961 C10.9461563,14.961 10.7174531,14.7158906 10.7174531,13.8662813 C10.7174531,12.4611094 11.3383594,11.7911719 11.8121719,11.3827031 C12.351375,10.9252031 13.266375,10.4187188 13.266375,9.53634375 C13.266375,8.78475 12.6127969,8.42526563 11.7958125,8.42526563 C10.1292188,8.42526563 10.4886563,9.68339063 9.606375,9.68339063 C9.1651875,9.68339063 8.62603125,9.38929688 8.62603125,8.75203125 C8.62603125,7.86970313 9.63904688,6.56259375 11.8448438,6.56259375 Z" id="Combined-Shape"></path>
            </g>
        </g>
    </g>
</svg>