<?xml version="1.0" encoding="UTF-8"?>
<svg width="15px" height="24px" viewBox="0 0 15 24" version="1.1" xmlns="http://www.w3.org/2000/svg" xmlns:xlink="http://www.w3.org/1999/xlink">
    <title>28E55772-EDD9-4CBA-9A7E-8CB0D266FAEF</title>
    <g id="New" stroke="none" stroke-width="1" fill="none" fill-rule="evenodd" opacity="0.501604353">
        <g id="Mobile---Menu" transform="translate(-21.000000, -212.000000)" fill="#333647" fill-rule="nonzero">
            <g id="022-smartphone" transform="translate(21.000000, 212.000000)">
                <path d="M12.5265469,-3.55271368e-15 C13.8212344,-3.55271368e-15 14.874375,1.053375 14.874375,2.34782812 L14.874375,2.34782812 L14.874375,21.6521719 C14.8926094,22.2516562 14.6627812,22.8425156 14.2266562,23.2922812 C13.7902031,23.742 13.1800312,24 12.5526562,24 L12.5526562,24 L2.37871875,24 C1.08426562,24 0.030890625,22.9468594 0.030890625,21.6521719 L0.030890625,21.6521719 L0.030890625,2.34782812 C0.030890625,1.053375 1.08426562,-3.55271368e-15 2.37871875,-3.55271368e-15 L2.37871875,-3.55271368e-15 Z M13.3088906,19.721 L1.59589063,19.721 L1.59609375,21.6521719 C1.59609375,22.0476992 1.89114941,22.3757155 2.2726782,22.4276382 L2.37871875,22.4347969 L12.5526094,22.4347969 C12.762375,22.4347969 12.95775,22.3523906 13.1030625,22.2021094 C13.2420937,22.0588594 13.3154062,21.8718281 13.3094531,21.6756563 L13.3094531,21.6756563 L13.3088906,19.721 Z M8.11785937,20.2695469 C8.55009375,20.2695469 8.90048437,20.6198906 8.90048437,21.0521719 C8.90048437,21.4844531 8.55014062,21.8347969 8.11785937,21.8347969 L8.11785937,21.8347969 L6.81351562,21.8347969 C6.38123437,21.8347969 6.03089062,21.4844531 6.03089062,21.0521719 C6.03089062,20.6198906 6.38123437,20.2695469 6.81351562,20.2695469 L6.81351562,20.2695469 Z M13.3088906,4.617 L1.59589063,4.617 L1.59589063,18.156 L13.3088906,18.156 L13.3088906,4.617 Z M12.5265469,1.56520312 L2.37871875,1.56520312 C1.94723437,1.56520312 1.59609375,1.91634375 1.59609375,2.34782812 L1.59609375,2.34782812 L1.59589063,3.052 L13.3088906,3.052 L13.3091719,2.34782812 C13.3091719,1.95230078 13.0141162,1.62428451 12.6325874,1.57236184 L12.5265469,1.56520312 Z" id="Combined-Shape"></path>
            </g>
        </g>
    </g>
</svg>