<?xml version="1.0" standalone="no"?>
<!DOCTYPE svg PUBLIC "-//W3C//DTD SVG 20010904//EN"
 "http://www.w3.org/TR/2001/REC-SVG-20010904/DTD/svg10.dtd">
<svg version="1.0" xmlns="http://www.w3.org/2000/svg"
 width="64.000000pt" height="64.000000pt" viewBox="0 0 64.000000 64.000000"
 preserveAspectRatio="xMidYMid meet">
<metadata>
Created by potrace 1.11, written by Peter Selinger 2001-2013
</metadata>
<g transform="translate(0.000000,64.000000) scale(0.100000,-0.100000)"
fill="#000000" stroke="none">
<path d="M105 474 c-8 -9 -15 -12 -15 -8 0 4 -9 -1 -19 -10 -11 -10 -17 -25
-14 -37 3 -10 0 -19 -6 -19 -17 0 -12 -32 8 -57 10 -12 30 -25 45 -29 14 -3
26 -10 26 -14 0 -4 15 -13 33 -21 17 -7 44 -22 59 -32 22 -17 25 -22 13 -33
-7 -8 -18 -14 -24 -14 -6 0 -15 -9 -21 -20 -8 -14 -8 -20 0 -20 6 0 9 -4 5 -9
-3 -5 -1 -12 5 -16 11 -7 80 23 80 34 0 4 6 8 13 8 6 0 20 4 30 8 10 4 17 3
17 -4 0 -6 7 -11 15 -11 8 0 15 -5 15 -12 0 -6 3 -8 7 -5 3 4 13 1 21 -5 20
-17 39 -18 52 -3 16 19 5 48 -22 60 -12 6 -24 16 -26 24 -3 8 0 11 7 7 6 -4
11 -4 11 1 0 9 62 47 73 45 4 -1 7 3 7 8 0 5 3 9 8 8 7 -2 58 28 78 47 16 15
27 55 16 55 -5 0 -13 16 -16 35 -4 20 -11 33 -17 30 -5 -4 -16 0 -24 8 -8 9
-20 14 -27 13 -29 -5 -88 -31 -88 -38 0 -4 -5 -8 -11 -8 -6 0 -32 -14 -57 -31
-43 -29 -47 -30 -59 -13 -7 10 -13 14 -13 8 0 -5 -5 -1 -11 9 -6 9 -14 15 -19
12 -5 -3 -11 -1 -15 5 -7 12 -81 50 -107 55 -10 2 -25 -3 -33 -11z m54 -25
c17 -6 31 -15 31 -21 0 -5 4 -7 9 -4 4 3 19 -3 31 -14 13 -11 29 -20 37 -20 8
0 11 -4 8 -10 -3 -5 3 -10 15 -10 12 0 18 -4 15 -10 -4 -6 5 -10 20 -10 18 0
29 6 32 19 3 13 10 18 21 14 10 -4 13 -2 8 5 -6 11 0 14 20 11 4 0 10 3 13 8
3 4 16 14 29 21 12 6 31 18 42 24 15 9 25 10 37 2 25 -15 27 -33 6 -41 -10 -3
-36 -18 -58 -31 -22 -14 -41 -24 -41 -21 -1 2 -11 -4 -21 -14 -11 -9 -23 -14
-26 -10 -4 3 -7 2 -7 -4 0 -12 -47 -32 -72 -31 -10 1 -18 4 -18 8 0 4 -18 15
-40 25 -22 10 -40 21 -40 25 0 8 -39 23 -53 21 -4 -1 -10 6 -13 14 -3 8 -10
13 -14 10 -4 -2 -15 4 -25 15 -17 19 -17 20 -1 20 9 0 14 5 11 10 -8 13 4 13
44 -1z m181 -220 c12 -8 10 -9 -9 -4 -17 5 -22 4 -16 -5 5 -9 4 -11 -4 -6 -6
4 -9 12 -6 17 8 12 16 11 35 -2z"/>
</g>
</svg>
